<svg width="31" height="42" viewBox="0 0 31 42" fill="none" xmlns="http://www.w3.org/2000/svg">
<g clip-path="url(#clip0_16_212)">
<path d="M21.6136 5.37899C21.6136 5.37899 21.6101 5.37899 21.6065 5.37899C21.5319 5.37551 21.4751 5.31297 21.4786 5.24348C21.5284 4.27409 21.3721 2.89471 20.3349 1.82803C19.3262 0.789148 17.6852 0.264495 15.4581 0.264495C13.231 0.264495 11.59 0.789148 10.5813 1.82803C9.54767 2.89123 9.38784 4.27062 9.43756 5.24001C9.44111 5.31297 9.38428 5.37204 9.30969 5.37551C9.23865 5.38246 9.17472 5.3234 9.17117 5.25043C9.11789 4.2324 9.28838 2.78005 10.3895 1.64735C11.4515 0.556355 13.1564 0.00390625 15.4581 0.00390625C17.7598 0.00390625 19.4682 0.556355 20.5267 1.64735C21.6278 2.78005 21.7948 4.23587 21.7415 5.25738C21.7379 5.32687 21.6775 5.38246 21.6101 5.38246L21.6136 5.37899Z" fill="#131F67"/>
<path d="M26.9732 40.1905C23.7835 40.1905 22.2704 37.9668 22.2562 37.9425C20.8141 36.2122 20.7182 32.689 20.7892 30.7467C20.7892 30.6738 20.8532 30.6147 20.9278 30.6217C21.0024 30.6217 21.0592 30.6842 21.0556 30.7572C20.9846 32.6647 21.077 36.1149 22.4729 37.7896C22.4942 37.8209 23.9363 39.9299 26.9767 39.9299C27.0513 39.9299 27.1117 39.989 27.1117 40.0619C27.1117 40.1349 27.0513 40.194 26.9767 40.194L26.9732 40.1905Z" fill="#131F67"/>
<path d="M3.94601 40.1899C3.87142 40.1899 3.81104 40.1309 3.81104 40.0579C3.81104 39.9849 3.87142 39.9259 3.94601 39.9259C6.98647 39.9259 8.42856 37.8203 8.44276 37.7995C9.85644 36.1004 9.91682 32.3062 9.87775 30.7531C9.87775 30.6802 9.93458 30.6211 10.0092 30.6211C10.0838 30.6211 10.1441 30.6767 10.1441 30.7497C10.1832 32.3306 10.1193 36.2012 8.65943 37.9558C8.65233 37.9662 7.1392 40.1899 3.94956 40.1899H3.94601Z" fill="#131F67"/>
<path d="M25.2257 17.6093C25.1511 17.6093 25.0943 17.5468 25.0979 17.4738C25.176 15.0659 25.0837 9.2357 22.5689 7.0954C19.738 4.68755 15.5183 5.0906 15.4757 5.09755C15.4046 5.09407 11.1814 4.69103 8.35402 7.0954C5.84991 9.22875 5.75045 15.0347 5.82149 17.4286C5.82149 17.5016 5.76466 17.5607 5.69362 17.5641C5.61193 17.5641 5.55865 17.5085 5.5551 17.439C5.4805 15.0034 5.58706 9.10367 8.17643 6.90082C11.0926 4.42002 15.4295 4.83348 15.4721 4.84043C15.4863 4.83696 19.8232 4.42002 22.7394 6.90082C25.3394 9.11409 25.4389 15.0381 25.3607 17.4842C25.3607 17.5537 25.3003 17.6093 25.2257 17.6093Z" fill="#131F67"/>
<path d="M16.4172 33.046H14.5027C14.0125 33.046 13.5401 32.9105 13.1352 32.6534C11.4338 31.5728 8.40401 28.5326 7.87832 26.8231C7.67941 26.1734 7.54089 25.5445 7.42012 24.992C7.32777 24.5612 7.23897 24.1547 7.13241 23.8072C6.85181 22.8622 6.66711 21.9275 6.58186 21.0207C5.91055 13.9674 7.6581 11.5005 8.7592 10.6562C9.59391 10.0169 10.624 9.86051 11.654 10.2149C13.9166 10.9897 15.4333 10.8924 15.4511 10.8924C15.4866 10.8924 17.0033 10.9897 19.2658 10.2149C20.2995 9.86398 21.326 10.0203 22.1607 10.6562C23.2618 11.5005 25.0093 13.9639 24.338 21.0207C24.2528 21.924 24.0645 22.8622 23.7875 23.8072C23.6845 24.1582 23.5957 24.5647 23.4998 24.992C23.379 25.548 23.2405 26.1734 23.0416 26.8231C22.5159 28.5291 19.4825 31.5728 17.7847 32.6534C17.3798 32.9105 16.9074 33.046 16.4172 33.046ZM10.5742 10.2879C9.98107 10.2879 9.42341 10.4824 8.92614 10.8612C7.86766 11.6707 6.19115 14.0647 6.85181 20.9963C6.93706 21.8858 7.11821 22.8066 7.39171 23.7343C7.49826 24.0921 7.58706 24.5056 7.68296 24.9399C7.80373 25.4889 7.9387 26.1108 8.13761 26.7501C8.63844 28.3762 11.6576 31.3991 13.2844 32.4345C13.6467 32.6638 14.0694 32.7854 14.5062 32.7854H16.4207C16.8576 32.7854 17.2803 32.6638 17.6426 32.4345C19.2729 31.3991 22.2885 28.3762 22.7894 26.7501C22.9847 26.1108 23.1232 25.4889 23.244 24.9399C23.3399 24.5056 23.4287 24.0956 23.5353 23.7343C23.8088 22.8066 23.9935 21.8858 24.0752 20.9963C24.7358 14.0647 23.0593 11.6742 22.0008 10.8612C21.2301 10.2705 20.3137 10.1315 19.3582 10.4581C17.0388 11.2503 15.5185 11.153 15.4546 11.1496C15.4084 11.153 13.8918 11.2538 11.5723 10.4581C11.2349 10.3435 10.901 10.2844 10.5778 10.2844L10.5742 10.2879Z" fill="#131F67"/>
<path d="M17.8696 17.5641C17.8128 17.5641 17.7631 17.5293 17.7453 17.4772C17.7205 17.4077 17.7595 17.3348 17.827 17.3104C17.9655 17.2653 21.244 16.1916 22.4374 17.0672C22.4978 17.1089 22.5085 17.1923 22.4623 17.2479C22.4197 17.3035 22.3344 17.3174 22.2776 17.2722C21.1978 16.4765 17.9442 17.5432 17.9123 17.5536C17.8981 17.5571 17.8839 17.5606 17.8696 17.5606V17.5641Z" fill="#131F67"/>
<path d="M12.8687 17.5645C12.8687 17.5645 12.8403 17.5645 12.8261 17.5576C12.7941 17.5471 9.54054 16.4839 8.46075 17.2761C8.40037 17.3213 8.31867 17.3074 8.27605 17.2518C8.23342 17.1927 8.24408 17.1128 8.30091 17.0711C9.49436 16.1955 12.7728 17.2692 12.9113 17.3143C12.9824 17.3387 13.0179 17.4116 12.993 17.4811C12.9753 17.5367 12.922 17.568 12.8687 17.568V17.5645Z" fill="#131F67"/>
<path d="M17.7419 27.8023C17.7419 27.8023 17.479 29.5187 15.458 29.5187C13.4369 29.5187 12.8828 27.7606 12.8828 27.7606C12.8828 27.7606 13.0355 27.8683 13.6749 27.7571C14.3142 27.6459 14.8826 27.9552 15.458 27.8057C15.458 27.8057 15.8629 27.9169 16.5697 27.771C16.5697 27.771 17.1451 27.6841 17.7383 27.8023H17.7419Z" fill="#131F67"/>
<path d="M18.1432 27.7337C18.1432 27.7337 16.6052 26.6045 16.0937 26.6774C15.5858 26.7504 15.6107 26.8789 15.3159 26.8789C15.0211 26.8789 15.0459 26.7504 14.538 26.6774C14.0301 26.6045 12.5986 27.6677 12.5986 27.6677C12.5986 27.6677 12.8863 27.8866 13.4795 27.7858C14.0727 27.685 14.4812 27.8275 14.8683 27.8483C15.2555 27.8692 15.4615 27.8066 15.4615 27.8066C15.4615 27.8066 15.9232 27.9282 16.5733 27.7719C16.5733 27.7719 16.9498 27.6746 17.4435 27.7823C17.9372 27.89 18.1432 27.7302 18.1432 27.7302V27.7337Z" fill="#131F67"/>
<path d="M15.845 27.9771C15.7207 27.9771 15.5928 27.9667 15.4578 27.9389C15.1133 28.0083 14.8256 27.9701 14.5201 27.9284C14.2146 27.8867 13.8985 27.8416 13.4972 27.9145C12.8791 28.0257 12.3286 27.713 12.0586 27.515C11.9982 27.4733 11.9876 27.3899 12.0302 27.3343C12.0728 27.2752 12.1581 27.2648 12.2149 27.3065C12.4493 27.4767 12.9253 27.7512 13.4474 27.6574C13.8914 27.5775 14.2431 27.6262 14.5556 27.6713C14.854 27.713 15.1168 27.7478 15.4259 27.6817C15.4436 27.6783 15.4649 27.6783 15.4862 27.6817C15.7953 27.7512 16.0545 27.713 16.3565 27.6713C16.669 27.6296 17.0207 27.581 17.4647 27.6574C17.9868 27.7512 18.4592 27.4767 18.6972 27.3065C18.7576 27.2648 18.8393 27.2752 18.8819 27.3343C18.9245 27.3934 18.9139 27.4733 18.8535 27.515C18.5835 27.713 18.0365 28.0257 17.4149 27.9145C17.0136 27.845 16.6974 27.8867 16.392 27.9284C16.2073 27.9528 16.0297 27.9771 15.8414 27.9771H15.845Z" fill="#131F67"/>
<path d="M19.8977 20.7078C18.7363 20.7078 17.9832 20.2074 17.9548 20.1866C17.8944 20.1449 17.8802 20.065 17.9193 20.0059C17.9584 19.9469 18.0436 19.933 18.104 19.9712C18.1111 19.9747 18.8251 20.4472 19.8977 20.4472C20.9704 20.4472 21.7874 19.7905 21.7945 19.7836C21.8513 19.7384 21.9366 19.7453 21.9827 19.8009C22.0289 19.8565 22.0218 19.9399 21.965 19.9851C21.9295 20.0129 21.0663 20.7078 19.8977 20.7078Z" fill="#131F67"/>
<path d="M21.6846 20.0894C21.6846 20.0894 21.951 20.2423 22.2884 20.1728C22.6294 20.1033 21.2122 21.1283 19.7559 20.6419C19.7559 20.6419 20.8108 20.7218 21.6846 20.0859V20.0894Z" fill="#131F67"/>
<path d="M11.0181 20.7078C9.84954 20.7078 8.98642 20.0163 8.9509 19.9851C8.89407 19.9399 8.88697 19.8565 8.93314 19.8009C8.97932 19.7453 9.06456 19.7384 9.12139 19.7836C9.1285 19.7905 9.949 20.4472 11.0181 20.4472C12.0873 20.4472 12.8048 19.9781 12.8119 19.9712C12.8722 19.9295 12.9539 19.9469 12.9966 20.0059C13.0392 20.065 13.0214 20.1449 12.961 20.1866C12.9291 20.2074 12.1761 20.7078 11.0181 20.7078Z" fill="#131F67"/>
<path d="M9.23129 20.0796C9.23129 20.0796 8.9649 20.2325 8.62746 20.163C8.28647 20.0935 9.7037 21.1185 11.16 20.6321C11.16 20.6321 10.1051 20.712 9.23129 20.0762V20.0796Z" fill="#131F67"/>
<path d="M24.2491 24.597C24.2171 24.597 24.1887 24.5866 24.1603 24.5658C24.1034 24.5171 24.0999 24.4372 24.1461 24.3816C25.13 23.2733 25.7444 20.3581 25.6059 19.1108C25.5704 18.7772 25.4923 18.6938 25.4674 18.6765C25.3004 18.5549 25.1477 18.5132 25.0021 18.5514C24.6718 18.6382 24.4728 19.0969 24.4728 19.1004C24.4444 19.1664 24.3663 19.1976 24.2988 19.1698C24.2313 19.142 24.1993 19.0656 24.2278 18.9996C24.2384 18.9753 24.4764 18.4193 24.9346 18.2977C25.1619 18.2352 25.3964 18.2943 25.6308 18.4645C25.7587 18.5583 25.8368 18.7599 25.8723 19.0795C26.0144 20.3998 25.3892 23.374 24.3485 24.5484C24.3237 24.5797 24.2846 24.5936 24.2491 24.5936V24.597Z" fill="#131F67"/>
<path d="M6.65277 24.5285C6.6137 24.5285 6.57463 24.5111 6.54977 24.4798C5.5197 23.2325 4.93008 20.293 5.08992 19.0352C5.12544 18.7434 5.20358 18.5558 5.3279 18.4689C5.56233 18.2986 5.79675 18.2431 6.02408 18.3021C6.47873 18.4237 6.72026 18.9796 6.73092 19.004C6.75933 19.07 6.72736 19.1464 6.65988 19.1742C6.59239 19.202 6.51425 19.1707 6.48583 19.1047C6.48583 19.1013 6.28337 18.6426 5.95659 18.5558C5.81096 18.5175 5.65823 18.5558 5.49129 18.6808C5.46998 18.6982 5.39539 18.7712 5.35987 19.0735C5.20713 20.2583 5.78965 23.1421 6.75933 24.32C6.80551 24.3756 6.7984 24.459 6.73802 24.5041C6.71315 24.525 6.68474 24.5319 6.65277 24.5319V24.5285Z" fill="#131F67"/>
<path d="M10.7946 42.0008C10.7946 42.0008 10.7732 42.0008 10.7661 42.0008C10.6951 41.9834 10.6489 41.9139 10.6667 41.8445C10.6844 41.7715 12.3254 34.7078 11.9489 32.769C11.6115 31.0248 10.4571 28.6656 9.83553 27.3974C9.75028 27.2271 9.67569 27.0708 9.61176 26.9353C9.60465 26.9214 9.6011 26.9075 9.6011 26.8901C9.48744 25.5663 9.11093 23.3739 8.57459 23.1272C8.52486 23.1029 8.45027 23.089 8.33661 23.1654C8.29399 23.1932 8.24071 23.1967 8.19809 23.1724C8.15546 23.1481 8.12705 23.1029 8.12705 23.0543C8.1377 22.6721 8.08087 21.6054 7.6724 21.2961C7.55874 21.2093 7.42376 21.1884 7.26037 21.2336C7.2213 21.244 7.18223 21.2371 7.15026 21.2162C7.1183 21.1954 7.09698 21.1606 7.09343 21.1224C7.09343 21.0981 7.0366 20.5074 6.58195 20.5144C6.19479 20.5179 6.14862 21.2892 6.14862 21.2961C6.14862 21.3448 6.11665 21.39 6.07047 21.4073C6.0243 21.4282 5.97102 21.4212 5.93195 21.39C5.93195 21.39 5.85381 21.3309 5.76856 21.3622C5.70818 21.3865 5.55189 21.4942 5.44888 22.0015C5.23222 23.0786 5.07238 24.0375 5.16473 25.7088C5.29615 28.0923 5.52348 29.5099 5.83605 29.9234L5.9284 30.0415C6.50026 30.7885 8.24426 33.0609 7.97431 34.2283C7.93169 34.4194 7.87841 34.6626 7.81803 34.9406C7.42731 36.73 6.70272 40.062 5.70462 41.6464C5.66555 41.709 5.58386 41.7263 5.51992 41.6881C5.45599 41.6499 5.43823 41.57 5.4773 41.5074C6.45053 39.9613 7.17158 36.657 7.55874 34.8815C7.61912 34.6001 7.6724 34.3569 7.71857 34.1658C7.87841 33.4674 7.20709 32.1332 5.71883 30.1909L5.62648 30.0693C5.27484 29.6072 5.04041 28.1826 4.90189 25.7123C4.80598 24.0097 4.97648 22.9952 5.18959 21.9389C5.28549 21.4594 5.44533 21.1884 5.67976 21.105C5.7579 21.0772 5.83605 21.0772 5.90353 21.0877C5.94971 20.7923 6.10244 20.2434 6.58195 20.2364C7.04726 20.2295 7.27103 20.636 7.33852 20.9383C7.52677 20.9174 7.69371 20.9626 7.83934 21.0738C8.3082 21.4317 8.38279 22.4115 8.39344 22.8388C8.51421 22.8145 8.61366 22.8388 8.68825 22.8701C9.51941 23.2523 9.82132 26.362 9.86394 26.8241C9.92433 26.9527 9.99892 27.0986 10.0771 27.2619C10.7448 28.6309 11.8672 30.9206 12.2118 32.696C12.5989 34.6869 10.997 41.5873 10.926 41.8792C10.9118 41.9383 10.8585 41.98 10.7946 41.98V42.0008Z" fill="#131F67"/>
<path d="M8.43255 28.2318C8.36151 28.2318 8.30468 28.1797 8.30113 28.1102C8.22654 27.0748 8.12709 23.0999 8.12354 23.0617C8.12354 22.9888 8.18037 22.9297 8.25496 22.9297C8.3402 22.9401 8.38993 22.9853 8.38993 23.0582C8.38993 23.0965 8.49294 27.0644 8.56753 28.0963C8.57108 28.1693 8.5178 28.2318 8.44321 28.2353C8.44321 28.2353 8.43611 28.2353 8.43255 28.2353V28.2318Z" fill="#131F67"/>
<path d="M6.91244 27.5371C6.84495 27.5371 6.78457 27.4849 6.78101 27.4154C6.68156 26.1021 6.77746 23.8263 6.88402 23.1487C6.98703 22.5025 7.09003 21.1161 7.09003 21.1022C7.09358 21.0293 7.16107 20.9772 7.23211 20.9806C7.3067 20.9841 7.35998 21.0466 7.35643 21.1196C7.35288 21.1752 7.25342 22.5303 7.14686 23.187C7.04031 23.8541 6.94796 26.0951 7.04386 27.3946C7.05096 27.4676 6.99413 27.5301 6.91954 27.5336C6.91954 27.5336 6.91244 27.5336 6.90888 27.5336L6.91244 27.5371Z" fill="#131F67"/>
<path d="M5.90703 28.1945C5.83954 28.1945 5.78271 28.1459 5.77561 28.0799C5.56249 26.4503 5.56604 24.2961 5.66194 23.5839C5.75785 22.8612 5.87861 21.2976 5.87861 21.2837C5.88572 21.2108 5.9532 21.1621 6.02069 21.1621C6.09528 21.1691 6.14856 21.2316 6.14501 21.3011C6.14501 21.3185 6.02424 22.8855 5.92479 23.6151C5.84664 24.2093 5.81112 26.3148 6.03845 28.0451C6.0491 28.1181 5.99583 28.1806 5.92479 28.1911C5.91768 28.1911 5.91413 28.1911 5.90703 28.1911V28.1945Z" fill="#131F67"/>
<path d="M19.9481 42.0014C19.8877 42.0014 19.8309 41.9598 19.8167 41.9007C19.7492 41.6088 18.1437 34.7119 18.5309 32.7175C18.8754 30.9421 19.9978 28.6523 20.6656 27.2834C20.7437 27.1201 20.8183 26.9741 20.8787 26.8456C20.9178 26.3835 21.2232 23.2738 22.0544 22.8916C22.129 22.8568 22.2284 22.8325 22.3492 22.8603C22.3599 22.4295 22.4344 21.4531 22.9033 21.0953C23.0489 20.9841 23.2159 20.9389 23.4041 20.9598C23.4716 20.6575 23.6989 20.251 24.1607 20.2579C24.6402 20.2648 24.7929 20.8138 24.8391 21.1092C24.9066 21.0953 24.9847 21.0987 25.0629 21.1265C25.2973 21.2099 25.4571 21.4844 25.5531 21.9604C25.7662 23.0167 25.9367 24.0312 25.8408 25.7337C25.7022 28.2041 25.4678 29.6287 25.1162 30.0908L25.0238 30.2089C23.5355 32.1512 22.8642 33.4889 23.0241 34.1838C23.0667 34.3749 23.12 34.6181 23.1839 34.903C23.5711 36.6785 24.2886 39.9793 25.2653 41.5254C25.3044 41.588 25.2831 41.6679 25.2227 41.7061C25.1588 41.7443 25.0771 41.7235 25.038 41.6644C24.0399 40.08 23.3153 36.748 22.9246 34.9586C22.8642 34.6772 22.811 34.4339 22.7648 34.2428C22.4948 33.0754 24.2388 30.7996 24.8107 30.0526L24.8995 29.9344C25.2121 29.521 25.4394 28.1034 25.5708 25.7198C25.6632 24.0451 25.5033 23.0896 25.2867 22.0125C25.1837 21.5018 25.0274 21.3941 24.967 21.3732C24.8817 21.3454 24.8036 21.401 24.8036 21.401C24.7645 21.4323 24.7112 21.4392 24.6651 21.4184C24.6189 21.3975 24.5905 21.3558 24.5869 21.3072C24.5869 21.3003 24.5372 20.5289 24.1536 20.5254H24.1465C23.706 20.5254 23.6457 21.1092 23.6421 21.1335C23.6386 21.1717 23.6172 21.2064 23.5853 21.2273C23.5533 21.2481 23.5107 21.2551 23.4752 21.2447C23.3118 21.1995 23.1768 21.2203 23.0631 21.3072C22.6582 21.6164 22.5978 22.6831 22.6085 23.0653C22.6085 23.114 22.5836 23.1591 22.5375 23.1834C22.4948 23.2078 22.438 23.2043 22.3989 23.1765C22.2853 23.0966 22.2107 23.114 22.1609 23.1383C21.6282 23.385 21.2481 25.5774 21.138 26.9012C21.138 26.9151 21.1309 26.9325 21.1273 26.9464C21.0634 27.0819 20.9853 27.2347 20.9036 27.4085C20.282 28.6767 19.1276 31.0359 18.7902 32.7801C18.4137 34.7189 20.0582 41.786 20.0724 41.8555C20.0902 41.925 20.044 41.9945 19.973 42.0119C19.9623 42.0119 19.9516 42.0119 19.9445 42.0119L19.9481 42.0014Z" fill="#131F67"/>
<path d="M22.3065 28.2314C22.3065 28.2314 22.2994 28.2314 22.2959 28.2314C22.2213 28.2279 22.168 28.1654 22.1716 28.0924C22.2426 27.0605 22.3456 23.096 22.3492 23.0543C22.3492 22.9814 22.4131 22.9362 22.4841 22.9258C22.5587 22.9258 22.6155 22.9883 22.6155 23.0578C22.6155 23.0995 22.5125 27.0709 22.4379 28.1063C22.4344 28.1758 22.374 28.2279 22.3065 28.2279V28.2314Z" fill="#131F67"/>
<path d="M23.8266 27.5373C23.8266 27.5373 23.8195 27.5373 23.816 27.5373C23.7414 27.5304 23.6881 27.4713 23.6916 27.3983C23.7875 26.0989 23.6952 23.8578 23.5886 23.1907C23.4821 22.534 23.3826 21.1824 23.3791 21.1234C23.3755 21.0504 23.4288 20.9878 23.5034 20.9844C23.578 20.9844 23.6419 21.033 23.6455 21.106C23.6455 21.1199 23.7485 22.5062 23.8515 23.1525C23.9616 23.83 24.0539 26.1058 23.9545 27.4192C23.9509 27.4887 23.8906 27.5408 23.8231 27.5408L23.8266 27.5373Z" fill="#131F67"/>
<path d="M24.8318 28.195C24.8318 28.195 24.8212 28.195 24.8141 28.195C24.7395 28.1845 24.6898 28.122 24.7004 28.049C24.9277 26.3187 24.8958 24.2132 24.8141 23.619C24.7146 22.8859 24.5974 21.3189 24.5939 21.305C24.5868 21.232 24.6436 21.1695 24.7182 21.166C24.7928 21.166 24.8567 21.2147 24.8603 21.2876C24.8603 21.3015 24.981 22.8651 25.0769 23.5878C25.1728 24.3 25.1764 26.4542 24.9633 28.0838C24.9562 28.1498 24.8958 28.1984 24.8318 28.1984V28.195Z" fill="#131F67"/>
<path d="M14.6554 25.1727C14.5169 25.1727 14.3784 25.1588 14.2398 25.1345C14.1688 25.1206 14.1191 25.0546 14.1333 24.9816C14.1475 24.9121 14.215 24.8635 14.2896 24.8774C14.4245 24.9017 14.5595 24.9156 14.698 24.9086C14.7726 24.9086 14.833 24.9642 14.833 25.0372C14.833 25.1102 14.7762 25.1692 14.7016 25.1692C14.6874 25.1692 14.6696 25.1692 14.6554 25.1692V25.1727Z" fill="#131F67"/>
<path d="M15.9769 25.177C15.9769 25.177 15.9449 25.177 15.9307 25.177C15.8561 25.177 15.7993 25.1145 15.7993 25.045C15.7993 24.9755 15.8597 24.9165 15.9343 24.9165C15.9449 24.9165 15.9627 24.9165 15.9769 24.9165C16.0977 24.9165 16.2149 24.906 16.3321 24.8852C16.4031 24.8713 16.4742 24.9199 16.4884 24.9894C16.5026 25.0589 16.4529 25.1284 16.3818 25.1423C16.2504 25.1666 16.1154 25.177 15.9769 25.177Z" fill="#131F67"/>
<path d="M25.6202 27.5738C25.5811 27.5738 25.542 27.5564 25.5172 27.5252C25.471 27.4696 25.4781 27.3862 25.5349 27.341L26.6751 26.4307C26.7923 26.3369 26.945 26.1979 26.9202 26.0693C26.9131 26.0346 26.8918 25.9964 26.8633 25.9512C26.842 25.913 26.8207 25.8748 26.803 25.8331C26.6964 25.576 26.8065 25.298 26.9486 25.1277C27.0729 24.9783 27.2256 24.8706 27.3784 24.7699L27.4601 24.7143C27.9218 24.3911 28.1882 24.0472 28.2593 23.6893C28.2983 23.4982 28.2522 23.2619 28.0959 23.1855C28.071 23.1716 28.0426 23.1646 28.0142 23.1542C27.9325 23.1264 27.833 23.0952 27.7655 23.0013C27.6341 22.8241 27.7442 22.64 27.8224 22.5045C27.8685 22.4246 27.9183 22.3412 27.9183 22.2752C27.9183 22.1987 27.8366 22.1362 27.762 22.1119C27.6554 22.0771 27.5311 22.0945 27.4174 22.1119C26.7888 22.2126 26.1778 22.4454 25.645 22.7929C25.5846 22.8311 25.4994 22.8172 25.4603 22.7581C25.4213 22.6991 25.4355 22.6157 25.4958 22.5775C26.0571 22.2126 26.7071 21.9625 27.3713 21.8582C27.5133 21.8374 27.6767 21.8165 27.8401 21.8686C28.0355 21.9312 28.1776 22.098 28.1811 22.2752C28.1811 22.4141 28.1136 22.5323 28.0497 22.64C27.9787 22.7616 27.9502 22.8172 27.9751 22.8519C27.9929 22.8763 28.0426 22.8936 28.0959 22.911C28.1349 22.9249 28.174 22.9388 28.2095 22.9527C28.5043 23.0952 28.5754 23.4496 28.5185 23.7379C28.4333 24.1618 28.1278 24.5614 27.6128 24.9228L27.5276 24.9818C27.3855 25.0791 27.2505 25.1694 27.1546 25.2911C27.0658 25.3988 26.9841 25.5794 27.048 25.7323C27.0587 25.7636 27.0765 25.7914 27.0942 25.8192C27.1262 25.8748 27.1653 25.9373 27.1795 26.0138C27.2363 26.2778 27.0303 26.4793 26.842 26.6287L25.7019 27.5391C25.677 27.5599 25.6486 27.5669 25.6166 27.5669L25.6202 27.5738Z" fill="#131F67"/>
<path d="M29.6338 27.5282C29.5024 27.5282 27.8259 27.2364 27.7051 26.9514C27.6625 26.8542 27.6696 26.7534 27.7264 26.6631C27.9396 26.3087 28.9057 26.1975 29.0158 26.187C29.2964 26.1593 29.7013 26.1454 30.0139 26.3712C30.1879 26.4963 30.3016 26.7117 30.3123 26.9271C30.3194 27.1043 30.2554 27.2607 30.1347 27.3684C30.0139 27.4726 29.8434 27.5282 29.6374 27.5282H29.6338ZM29.2857 26.4303C29.2112 26.4303 29.1295 26.4337 29.0407 26.4442C28.6642 26.4824 28.0568 26.6214 27.9538 26.7951C27.9431 26.8159 27.9396 26.8298 27.9538 26.8507C28.0816 26.9619 29.3959 27.2641 29.6374 27.2641C29.7333 27.2641 29.8683 27.2468 29.9571 27.1703C30.0388 27.1008 30.0494 27.0036 30.0459 26.9341C30.0388 26.7951 29.9642 26.6561 29.8541 26.5762C29.7155 26.4754 29.5344 26.4268 29.2893 26.4268L29.2857 26.4303Z" fill="#131F67"/>
<path d="M30.0598 25.523C29.8715 25.523 29.6975 25.4639 29.5696 25.4118L29.4773 25.3736C29.3139 25.3041 29.1256 25.2276 28.9694 25.1998C28.9161 25.1894 28.8735 25.1477 28.8628 25.0956C28.8521 25.0435 28.877 24.9879 28.9232 24.9601L29.1647 24.8142C29.3139 24.7377 29.4595 24.6682 29.6087 24.6092C29.7863 24.5397 29.9817 24.4771 30.1877 24.5014C30.4399 24.5292 30.6459 24.703 30.6849 24.9149C30.7382 25.1963 30.5002 25.4396 30.2516 25.5021C30.1877 25.5195 30.1237 25.5264 30.0598 25.5264V25.523ZM29.3174 25.0296C29.4062 25.0643 29.4986 25.0991 29.5803 25.1338L29.6726 25.172C29.8893 25.2589 30.0527 25.2832 30.1877 25.2485C30.3191 25.2137 30.4505 25.0886 30.4257 24.9601C30.4043 24.8454 30.2729 24.7725 30.1593 24.7586C30.0101 24.7412 29.8573 24.7933 29.7117 24.8489C29.5767 24.901 29.4453 24.9601 29.321 25.0261L29.3174 25.0296Z" fill="#131F67"/>
<path d="M28.2448 31.5508C27.8257 31.5508 27.4918 31.2242 27.3426 30.9011C27.2005 30.5884 27.1757 30.2513 27.1544 29.9247V29.8587C27.1366 29.6815 27.1117 29.5043 27.0869 29.3271C27.0549 29.1082 27.0229 28.8789 27.0158 28.6531C27.0087 28.4863 27.0194 28.3195 27.1437 28.25C27.2822 28.1701 27.4385 28.2639 27.6729 28.4064C28.4224 28.8615 28.9197 29.4175 29.1008 30.0186C29.2074 30.366 29.1967 30.7065 29.076 30.981C28.9268 31.318 28.5965 31.5473 28.259 31.5508H28.2484H28.2448ZM27.2858 28.4932C27.2822 28.521 27.2787 28.5662 27.2822 28.6426C27.2893 28.8546 27.3213 29.077 27.3533 29.2889C27.3781 29.4731 27.4066 29.6572 27.4172 29.8379V29.9039C27.4421 30.2097 27.4669 30.5224 27.5877 30.7934C27.7014 31.0401 27.95 31.2902 28.2484 31.2902H28.2555C28.4899 31.2902 28.7279 31.1165 28.8344 30.8768C28.9303 30.6579 28.9374 30.3799 28.8486 30.095C28.6391 29.414 28.0175 28.9241 27.5344 28.6287C27.4492 28.5766 27.3462 28.5141 27.2893 28.4932H27.2858Z" fill="#131F67"/>
<path d="M20.3349 28.2267C20.3349 28.2267 20.2994 28.2267 20.2817 28.2163C19.9762 28.0877 19.859 27.7472 19.8767 27.4623C19.8909 27.2434 19.9726 27.0419 20.0472 26.8473L20.1005 26.7118C20.1715 26.5242 20.2426 26.2809 20.1751 26.069C20.1609 26.0308 20.1467 25.9926 20.1289 25.9543C20.097 25.8814 20.0579 25.798 20.0472 25.7042C20.0117 25.3984 20.239 25.1622 20.445 24.9884C20.6333 24.8286 20.9707 24.5958 21.2158 24.4256L21.3153 24.3561C21.3757 24.3144 21.4574 24.3283 21.5 24.3873C21.5426 24.4464 21.5284 24.5263 21.468 24.568L21.3686 24.6375C21.1412 24.7973 20.7931 25.0336 20.6155 25.1865C20.4593 25.3185 20.2852 25.4922 20.3101 25.6729C20.3172 25.7285 20.342 25.7876 20.3705 25.8501C20.3918 25.8953 20.4095 25.9404 20.4273 25.9891C20.5232 26.2775 20.4344 26.5763 20.3491 26.8021L20.2959 26.9411C20.2213 27.1253 20.1538 27.299 20.1431 27.4762C20.1289 27.6603 20.2 27.8931 20.3847 27.973C20.4522 28.0008 20.4841 28.0773 20.4557 28.1433C20.4344 28.1919 20.3847 28.2232 20.3314 28.2232L20.3349 28.2267Z" fill="#131F67"/>
<path d="M5.07228 27.5733C5.04387 27.5733 5.0119 27.5629 4.98704 27.5455L3.84686 26.6352C3.66216 26.4858 3.45615 26.2843 3.50943 26.0202C3.52719 25.9437 3.56271 25.8812 3.59468 25.8256C3.61244 25.7978 3.62664 25.77 3.64085 25.7388C3.70479 25.5859 3.62309 25.4052 3.53429 25.2975C3.43484 25.1759 3.29986 25.0855 3.16134 24.9883L3.07609 24.9292C2.55751 24.5644 2.25559 24.1683 2.17035 23.7444C2.11352 23.456 2.18456 23.0981 2.47937 22.9591C2.51489 22.9418 2.55396 22.9279 2.59303 22.9174C2.64631 22.9001 2.69604 22.8827 2.71379 22.8584C2.73866 22.8236 2.71379 22.768 2.6392 22.6464C2.57527 22.5387 2.50423 22.4206 2.50778 22.2816C2.50778 22.1044 2.64986 21.9376 2.84877 21.8751C3.0015 21.8264 3.16489 21.8438 3.31762 21.8647C3.98184 21.9689 4.63184 22.2191 5.19305 22.5839C5.25343 22.6221 5.27119 22.7055 5.22857 22.7646C5.18594 22.8236 5.10425 22.841 5.04387 22.7993C4.51463 22.4553 3.90014 22.2191 3.27145 22.1183C3.16134 22.1009 3.03347 22.0836 2.92691 22.1183C2.85232 22.1426 2.77063 22.2086 2.77063 22.2816C2.77063 22.3476 2.8168 22.431 2.86653 22.5109C2.94822 22.6464 3.05833 22.8306 2.92336 23.0078C2.85587 23.0981 2.75642 23.1329 2.67472 23.1607C2.64631 23.1711 2.61789 23.178 2.59303 23.1919C2.43319 23.2684 2.39057 23.5012 2.42964 23.6957C2.50068 24.0536 2.77063 24.3976 3.22883 24.7207L3.31052 24.7763C3.4597 24.8805 3.61599 24.9883 3.74031 25.1342C3.88238 25.3044 3.99604 25.5824 3.88593 25.8395C3.86817 25.8812 3.84686 25.9194 3.82555 25.9576C3.80069 26.0028 3.77582 26.041 3.76872 26.0758C3.74031 26.2043 3.89659 26.3433 4.0138 26.4371L5.15398 27.3475C5.21081 27.3926 5.21791 27.476 5.17174 27.5316C5.14687 27.5629 5.1078 27.5802 5.06873 27.5802L5.07228 27.5733Z" fill="#131F67"/>
<path d="M1.05834 27.5302C0.852327 27.5302 0.681834 27.4746 0.561068 27.3703C0.43675 27.2626 0.372815 27.1063 0.383471 26.9291C0.394127 26.7137 0.507789 26.4982 0.681834 26.3732C0.994405 26.1473 1.39933 26.1612 1.67993 26.189C1.79004 26.1994 2.75261 26.3106 2.96928 26.665C3.02611 26.7553 3.02967 26.8561 2.99059 26.9534C2.86983 27.2383 1.15069 27.5267 1.05834 27.5302ZM1.40643 26.4322C1.16135 26.4322 0.980197 26.4809 0.841671 26.5816C0.731561 26.6615 0.65697 26.804 0.649867 26.9395C0.649867 27.009 0.660522 27.1063 0.738665 27.1758C0.827464 27.2522 0.948229 27.2765 1.06189 27.2696C1.30342 27.2696 2.61764 26.9638 2.75972 26.8353C2.75617 26.8353 2.75617 26.8179 2.74196 26.8005C2.63895 26.6303 2.03157 26.4913 1.65507 26.4496C1.56627 26.4392 1.48457 26.4357 1.40998 26.4357L1.40643 26.4322Z" fill="#131F67"/>
<path d="M0.632193 25.5245C0.568258 25.5245 0.504323 25.5175 0.440388 25.5002C0.191752 25.4376 -0.0462275 25.1944 0.00705164 24.913C0.046123 24.6975 0.252135 24.5273 0.504323 24.4995C0.710336 24.4752 0.905692 24.5377 1.08329 24.6072C1.23247 24.6663 1.3781 24.7323 1.52018 24.8052L1.76881 24.9581C1.81499 24.9859 1.83985 25.0415 1.8292 25.0936C1.81854 25.1458 1.77592 25.1874 1.72264 25.1979C1.56635 25.2257 1.38165 25.3056 1.21471 25.3716L1.11881 25.4098C0.990939 25.4619 0.813342 25.521 0.628641 25.521L0.632193 25.5245ZM0.596674 24.7566C0.575362 24.7566 0.557602 24.7566 0.536291 24.7566C0.422629 24.7705 0.291207 24.8435 0.269895 24.9581C0.245032 25.0867 0.376453 25.2118 0.507875 25.2465C0.642849 25.2813 0.806238 25.2569 1.02291 25.1701L1.11526 25.1319C1.2005 25.0971 1.2893 25.0589 1.3781 25.0276C1.25733 24.9651 1.12236 24.9025 0.987387 24.8504C0.859517 24.8018 0.728095 24.7566 0.596674 24.7566Z" fill="#131F67"/>
<path d="M2.38332 31.5528H2.37266C2.03168 31.5493 1.7049 31.32 1.55572 30.9829C1.43495 30.7085 1.4243 30.368 1.53085 30.0205C1.71555 29.4194 2.20927 28.8635 2.95873 28.4083C3.19316 28.2659 3.34945 28.1721 3.48797 28.252C3.61229 28.3215 3.62295 28.4882 3.61584 28.655C3.60874 28.8809 3.57322 29.1067 3.5448 29.3291C3.51994 29.5063 3.49508 29.6835 3.48087 29.8607V29.9267C3.45245 30.2533 3.42759 30.5903 3.28551 30.903C3.13633 31.2296 2.80245 31.5528 2.38332 31.5528ZM1.78304 30.0935C1.69424 30.3784 1.70135 30.6563 1.79725 30.8752C1.90381 31.115 2.14179 31.2852 2.37622 31.2887H2.38332C2.68168 31.2887 2.93032 31.0385 3.04398 30.7919C3.1683 30.5243 3.18961 30.2081 3.21092 29.9058V29.8398C3.22868 29.6557 3.25354 29.475 3.28196 29.2909C3.31038 29.0754 3.34234 28.8565 3.353 28.6446C3.353 28.5647 3.353 28.5195 3.34945 28.4952C3.29262 28.5195 3.18961 28.5786 3.10436 28.6307C2.6213 28.9226 1.99971 29.4159 1.79015 30.0969L1.78304 30.0935Z" fill="#131F67"/>
<path d="M10.3572 28.2271C10.3039 28.2271 10.2578 28.1958 10.2329 28.1472C10.2045 28.0812 10.2329 28.0047 10.3039 27.9769C10.4886 27.9005 10.5597 27.6677 10.5455 27.4801C10.5313 27.2994 10.4638 27.1292 10.3927 26.945L10.3395 26.806C10.2542 26.5802 10.169 26.2814 10.2613 25.993C10.2755 25.9478 10.2968 25.8992 10.3181 25.854C10.3466 25.7915 10.3714 25.7324 10.3785 25.6768C10.3998 25.4927 10.2258 25.3189 10.0731 25.1904C9.89547 25.041 9.55093 24.8012 9.32361 24.6449L9.2206 24.5719C9.16022 24.5302 9.14601 24.4503 9.18863 24.3912C9.23126 24.3322 9.31295 24.3183 9.37333 24.36L9.47634 24.4295C9.72142 24.5997 10.0589 24.8325 10.2471 24.9923C10.4531 25.1661 10.6804 25.4023 10.6449 25.7081C10.6343 25.8019 10.5952 25.8853 10.5632 25.9583C10.5455 25.9965 10.5313 26.0312 10.5171 26.0729C10.446 26.2849 10.5171 26.5281 10.5916 26.7157L10.6449 26.8512C10.7231 27.0458 10.8012 27.2438 10.8154 27.4627C10.8332 27.7442 10.716 28.0881 10.4105 28.2167C10.3927 28.2236 10.375 28.2271 10.3572 28.2271Z" fill="#131F67"/>
</g>
<defs>
<clipPath id="clip0_16_212">
<rect width="30.6923" height="42" fill="white"/>
</clipPath>
</defs>
</svg>
