<svg width="36" height="39" viewBox="0 0 36 39" fill="none" xmlns="http://www.w3.org/2000/svg">
<g clip-path="url(#clip0_16_269)">
<path d="M28.557 37.3189C25.6319 37.3189 24.2443 35.2541 24.2313 35.2315C22.9088 33.6248 22.8209 30.3533 22.886 28.5497C22.886 28.4852 22.9414 28.4336 23.0098 28.4336C23.0098 28.4336 23.0098 28.4336 23.013 28.4336C23.0814 28.4336 23.1336 28.4917 23.1303 28.5594C23.0652 30.3307 23.1498 33.5344 24.43 35.0895C24.4495 35.1186 25.772 37.077 28.5603 37.077C28.6287 37.077 28.684 37.1318 28.684 37.1996C28.684 37.2673 28.6287 37.3222 28.5603 37.3222L28.557 37.3189Z" fill="#3A1C1D"/>
<path d="M7.4397 37.3189C7.37129 37.3189 7.31592 37.2641 7.31592 37.1963C7.31592 37.1286 7.37129 37.0737 7.4397 37.0737C10.2345 37.0737 11.5504 35.1186 11.5635 35.0992C12.8599 33.5215 12.9153 29.9984 12.8794 28.5562C12.8794 28.4884 12.9316 28.4336 13 28.4336C13.0651 28.4336 13.1205 28.4852 13.1237 28.553C13.1596 30.021 13.1009 33.6151 11.7622 35.2444C11.7557 35.2541 10.368 37.3189 7.44295 37.3189H7.4397Z" fill="#3A1C1D"/>
<path d="M23.6417 4.99505C23.6417 4.99505 23.6385 4.99505 23.6352 4.99505C23.5668 4.99183 23.5147 4.93375 23.5212 4.86923C23.5668 3.96908 23.4235 2.68822 22.4756 1.69773C21.5505 0.733059 20.0457 0.245882 18.0033 0.245882C15.961 0.245882 14.4561 0.733059 13.531 1.69773C12.5831 2.685 12.4365 3.96585 12.4821 4.866C12.4821 4.93375 12.4333 4.9886 12.3649 4.99183C12.2997 4.99505 12.2411 4.94343 12.2378 4.87568C12.189 3.93036 12.3453 2.58175 13.3551 1.52997C14.3258 0.516894 15.8926 0.00390625 18.0033 0.00390625C20.1141 0.00390625 21.6808 0.516894 22.6515 1.52997C23.6613 2.58175 23.8144 3.93359 23.7655 4.88213C23.7655 4.94666 23.7069 4.99828 23.645 4.99828L23.6417 4.99505Z" fill="#3A1C1D"/>
<path d="M26.9611 16.3513H26.9578C26.8894 16.3513 26.8373 16.2933 26.8406 16.2255C26.9122 13.9897 26.8275 8.57909 24.5214 6.58844C21.9285 4.35259 18.0556 4.72684 18.0165 4.7333C17.9513 4.73007 14.0784 4.35582 11.4855 6.58844C9.18911 8.56942 9.09791 13.9606 9.16631 16.1836C9.16631 16.2513 9.11419 16.3062 9.04905 16.3094C8.98064 16.3062 8.92527 16.2578 8.92201 16.1933C8.85361 13.9316 8.95133 8.45327 11.3259 6.40777C14.0002 4.10416 17.9774 4.4881 18.0165 4.49455C18.0328 4.49455 22.0067 4.10416 24.681 6.40777C27.0653 8.46295 27.1565 13.9639 27.0849 16.2352C27.0849 16.2997 27.0295 16.3513 26.9611 16.3513Z" fill="#3A1C1D"/>
<path d="M18.8761 30.6858H17.1204C16.6709 30.6858 16.2377 30.56 15.8664 30.3212C14.3061 29.3178 11.5276 26.4948 11.0455 24.9074C10.8631 24.3041 10.7361 23.7201 10.6253 23.2072C10.5406 22.8071 10.4592 22.4296 10.3615 22.107C10.1042 21.2294 9.93477 20.3615 9.85659 19.5195C9.24096 12.97 10.8436 10.6793 11.8533 9.8985C12.6188 9.30486 13.5634 9.15967 14.5081 9.48876C16.5862 10.2082 17.9739 10.1179 17.9901 10.1179C18.0227 10.1179 19.4136 10.2082 21.4885 9.48876C22.4364 9.15967 23.3778 9.30808 24.1432 9.8985C25.153 10.6793 26.7556 12.97 26.14 19.5195C26.0618 20.3583 25.8924 21.2294 25.6351 22.107C25.5406 22.4328 25.4592 22.8103 25.3713 23.2072C25.2605 23.7234 25.1335 24.3041 24.9511 24.9074C24.469 26.4916 21.6872 29.3178 20.1302 30.3212C19.7589 30.56 19.3257 30.6858 18.8761 30.6858ZM13.5178 9.55329C12.9739 9.55329 12.4625 9.73396 12.0064 10.0889C11.0357 10.8406 9.49829 13.0635 10.1042 19.4969C10.1823 20.3228 10.3485 21.1778 10.6025 22.0392C10.7002 22.3715 10.7817 22.7555 10.8696 23.1588C10.9804 23.6685 11.1042 24.246 11.2866 24.8397C11.7458 26.3496 14.5146 29.1565 16.0064 30.118C16.3387 30.3309 16.7263 30.4438 17.127 30.4438H18.8827C19.2833 30.4438 19.6709 30.3309 20.0032 30.118C21.4983 29.1565 24.2638 26.3496 24.723 24.8397C24.9022 24.246 25.0292 23.6685 25.14 23.1588C25.2279 22.7555 25.3094 22.3748 25.4071 22.0392C25.6579 21.1778 25.8273 20.3228 25.9055 19.4969C26.5113 13.0635 24.9739 10.8406 24.0032 10.0889C23.2963 9.54038 22.4592 9.41133 21.5797 9.7146C19.4527 10.4502 18.0585 10.3599 17.9999 10.3566C17.9608 10.3599 16.5667 10.4534 14.4364 9.7146C14.127 9.60813 13.8208 9.55329 13.5243 9.55329H13.5178Z" fill="#3A1C1D"/>
<path d="M26.0587 22.8407C26.0294 22.8407 26.0033 22.831 25.9773 22.8116C25.9251 22.7665 25.9219 22.6923 25.9642 22.6406C26.8665 21.6114 27.43 18.9045 27.303 17.7463C27.2704 17.4366 27.1988 17.3591 27.176 17.343C27.0229 17.2301 26.8828 17.1914 26.7492 17.2268C26.4463 17.3075 26.2639 17.7334 26.2639 17.7366C26.2378 17.7979 26.1694 17.8269 26.1043 17.8011C26.0424 17.7753 26.0131 17.7043 26.0392 17.643C26.0489 17.6205 26.2704 17.1042 26.6874 16.9913C26.8958 16.9332 27.1108 16.9881 27.3258 17.1462C27.4431 17.2333 27.5147 17.4204 27.5473 17.7172C27.6776 18.9433 27.1043 21.705 26.1499 22.7955C26.1271 22.8213 26.0913 22.8374 26.0587 22.8374V22.8407Z" fill="#3A1C1D"/>
<path d="M9.92187 22.7768C9.88604 22.7768 9.85021 22.7607 9.82741 22.7317C8.88278 21.5734 8.34207 18.8471 8.48865 17.6792C8.52122 17.4082 8.59288 17.234 8.70689 17.1501C8.92187 16.992 9.13685 16.9371 9.34532 16.9952C9.76226 17.1081 9.98376 17.6244 9.99353 17.6469C10.0196 17.7082 9.99027 17.7792 9.92838 17.805C9.86324 17.8308 9.79483 17.8018 9.76878 17.7405C9.76878 17.7373 9.58311 17.3114 9.28343 17.2307C9.14988 17.1953 9.00982 17.2307 8.85672 17.3469C8.83718 17.363 8.77203 17.4308 8.7362 17.7115C8.59614 18.8117 9.13034 21.4895 10.0228 22.5832C10.0652 22.6349 10.0554 22.7123 10.0033 22.7542C9.9805 22.7736 9.95444 22.7801 9.92513 22.7801L9.92187 22.7768Z" fill="#3A1C1D"/>
<path d="M20.2115 16.3108C20.1594 16.3108 20.1138 16.2785 20.0943 16.2301C20.0715 16.1656 20.1073 16.0978 20.1725 16.0752C20.2995 16.0333 23.306 15.0363 24.4005 15.8494C24.4559 15.8881 24.4656 15.9655 24.4233 16.0172C24.3842 16.072 24.306 16.0817 24.2506 16.0397C23.2604 15.3009 20.2767 16.2914 20.2474 16.3011C20.2344 16.3043 20.2213 16.3075 20.2083 16.3075L20.2115 16.3108Z" fill="#3A1C1D"/>
<path d="M15.6222 16.3114C15.6222 16.3114 15.5961 16.3114 15.5831 16.305C15.5538 16.2953 12.5701 15.308 11.5798 16.0436C11.5277 16.0824 11.4495 16.0727 11.4072 16.0211C11.3681 15.9662 11.3779 15.892 11.43 15.8533C12.5212 15.0403 15.531 16.0372 15.658 16.0791C15.7231 16.1017 15.7557 16.1695 15.7362 16.234C15.7199 16.2856 15.671 16.3147 15.6189 16.3147L15.6222 16.3114Z" fill="#3A1C1D"/>
<path d="M20.0947 25.8188C20.0947 25.8188 19.8537 27.4126 18.0002 27.4126C16.1468 27.4126 15.6387 25.7801 15.6387 25.7801C15.6387 25.7801 15.7787 25.8801 16.3651 25.7768C16.9514 25.6736 17.4725 25.9607 18.0002 25.822C18.0002 25.822 18.3716 25.9252 19.0198 25.7897C19.0198 25.7897 19.5475 25.7091 20.0914 25.8188H20.0947Z" fill="#131F67"/>
<path d="M20.4592 25.7537C20.4592 25.7537 19.0488 24.7051 18.5797 24.7729C18.1139 24.8406 18.1367 24.96 17.8664 24.96C17.596 24.96 17.6188 24.8406 17.153 24.7729C16.6872 24.7051 15.3745 25.6924 15.3745 25.6924C15.3745 25.6924 15.6384 25.8956 16.1823 25.8021C16.7263 25.7085 17.1009 25.8408 17.4559 25.8601C17.811 25.8795 17.9999 25.8214 17.9999 25.8214C17.9999 25.8214 18.4234 25.9343 19.0195 25.7892C19.0195 25.7892 19.3647 25.6988 19.8175 25.7988C20.267 25.9021 20.4592 25.7504 20.4592 25.7504V25.7537Z" fill="#131F67"/>
<path d="M18.355 25.9801C18.241 25.9801 18.1238 25.9704 18 25.9446C17.684 26.0091 17.4202 25.9737 17.1401 25.9349C16.8599 25.8962 16.57 25.8543 16.202 25.922C15.6319 26.0253 15.1303 25.7349 14.8827 25.551C14.8274 25.5123 14.8176 25.4349 14.8567 25.3832C14.8958 25.3284 14.9739 25.3187 15.0261 25.3574C15.2443 25.5155 15.6775 25.7704 16.1531 25.6833C16.5603 25.6091 16.8827 25.6542 17.1694 25.6962C17.443 25.7349 17.684 25.7672 17.9674 25.7059C17.9837 25.7026 18.0033 25.7026 18.0228 25.7059C18.3062 25.7704 18.544 25.7349 18.8208 25.6962C19.1075 25.6575 19.43 25.6123 19.8371 25.6833C20.316 25.7704 20.7492 25.5155 20.9642 25.3574C21.0195 25.3187 21.0945 25.3284 21.1335 25.3832C21.1726 25.4381 21.1629 25.5123 21.1075 25.551C20.8599 25.7349 20.3583 26.0221 19.7883 25.922C19.4202 25.8543 19.1303 25.8962 18.8502 25.9349C18.6808 25.9575 18.5179 25.9801 18.3453 25.9801H18.355Z" fill="#3A1C1D"/>
<path d="M22.0719 19.2314C21.0067 19.2314 20.3194 18.7668 20.2901 18.7475C20.2348 18.7088 20.2217 18.6346 20.2608 18.5797C20.2999 18.5249 20.3748 18.512 20.4302 18.5475C20.4367 18.5507 21.0882 18.9895 22.0751 18.9895C23.0621 18.9895 23.808 18.3797 23.8146 18.3732C23.8667 18.3313 23.9416 18.3377 23.9872 18.3894C24.0295 18.441 24.023 18.5184 23.9709 18.5604C23.9383 18.5862 23.1468 19.2314 22.0751 19.2314H22.0719Z" fill="#3A1C1D"/>
<path d="M23.7101 18.6575C23.7101 18.6575 23.9544 18.7995 24.2639 18.735C24.5766 18.6704 23.2769 19.6222 21.9414 19.1705C21.9414 19.1705 22.9088 19.2447 23.7101 18.6543V18.6575Z" fill="#3A1C1D"/>
<path d="M13.9252 19.2314C12.8535 19.2314 12.062 18.5894 12.0294 18.5604C11.9773 18.5184 11.9708 18.441 12.0131 18.3894C12.0555 18.3377 12.1337 18.3313 12.1858 18.3732C12.1923 18.3797 12.9447 18.9895 13.9252 18.9895C14.9057 18.9895 15.5636 18.5539 15.5701 18.5475C15.6255 18.5087 15.7004 18.5216 15.7395 18.5765C15.7786 18.6313 15.7656 18.7055 15.7102 18.7443C15.6809 18.7636 14.9903 19.2282 13.9285 19.2282L13.9252 19.2314Z" fill="#3A1C1D"/>
<path d="M12.2868 18.6478C12.2868 18.6478 12.0425 18.7897 11.7331 18.7252C11.4204 18.6607 12.72 19.6124 14.0555 19.1607C14.0555 19.1607 13.0881 19.235 12.2868 18.6445V18.6478Z" fill="#3A1C1D"/>
<path d="M17.2608 23.3761C17.1338 23.3761 17.0068 23.3631 16.8797 23.3406C16.8146 23.3277 16.769 23.2664 16.782 23.1986C16.795 23.1341 16.8569 23.0889 16.9253 23.1018C17.0491 23.1244 17.1729 23.1341 17.2999 23.1341C17.3651 23.1341 17.4205 23.1857 17.4237 23.2535C17.4237 23.3212 17.3716 23.3761 17.3032 23.3761C17.2902 23.3761 17.2739 23.3761 17.2608 23.3761Z" fill="#3A1C1D"/>
<path d="M18.4724 23.3787C18.4724 23.3787 18.4431 23.3787 18.4301 23.3787C18.3617 23.3787 18.3096 23.3206 18.3096 23.2561C18.3096 23.1883 18.3519 23.1303 18.4333 23.1367C18.5539 23.1399 18.6776 23.1303 18.7982 23.1077C18.8666 23.0948 18.9285 23.1399 18.9415 23.2045C18.9545 23.269 18.9089 23.3335 18.8438 23.3464C18.72 23.369 18.5962 23.3787 18.4724 23.3787Z" fill="#3A1C1D"/>
<path d="M26.7847 19.8898C26.788 17.4281 26.1397 15.1568 25.042 13.321L23.1723 14.076L24.5404 12.5596C22.9215 10.3108 20.5665 8.89124 17.941 8.88479C15.3287 8.87834 12.9769 10.2786 11.3482 12.5047L12.7358 14.0566L10.8303 13.2791C9.71629 15.1116 9.05505 17.3894 9.05179 19.8576C9.04528 22.4999 9.95082 24.9229 11.3091 26.82L12.6511 26.278L11.7 27.333C13.4329 29.4979 15.7619 30.8562 17.8954 30.8594C19.9248 30.8626 22.2863 29.4946 24.0648 27.3104L23.1593 26.2973L24.4427 26.8232C25.8303 24.9326 26.7782 22.5225 26.7847 19.8898ZM13.6316 19.864C12.3612 19.864 11.3319 19.2058 11.3352 18.396C11.3352 17.5862 12.3678 16.9345 13.6381 16.9377C14.9085 16.9377 15.9378 17.5959 15.9345 18.4057C15.9345 19.2155 14.902 19.8672 13.6316 19.864ZM17.902 27.4072C16.6316 27.4072 15.6023 27.2072 15.6023 26.3974C15.6023 25.5876 16.6349 25.1681 17.9052 25.1714C19.1756 25.1714 20.2049 25.5972 20.2016 26.407C20.2016 27.2169 19.1691 27.4104 17.8987 27.4072H17.902ZM22.2016 19.8802C20.9313 19.8802 19.902 19.222 19.9052 18.4122C19.9052 17.6024 20.9378 16.9506 22.2081 16.9539C23.4785 16.9539 24.5078 17.612 24.5046 18.4218C24.5046 19.2317 23.472 19.8834 22.2016 19.8802Z" fill="white"/>
<path d="M17.9053 30.9829H17.8955C15.7424 30.9797 13.3906 29.644 11.6024 27.4113C11.5665 27.3662 11.5665 27.2984 11.6056 27.2565L12.205 26.5918L11.3516 26.9371C11.2994 26.9596 11.2375 26.9403 11.205 26.8951C9.7294 24.8335 8.91833 22.3363 8.92484 19.8617C8.9281 17.4452 9.55025 15.1512 10.7196 13.2219C10.7522 13.1703 10.8174 13.1509 10.8695 13.1735L12.2864 13.751L11.2473 12.5895C11.2082 12.5476 11.205 12.483 11.2408 12.4379C12.9444 10.1052 15.3776 8.76953 17.9183 8.76953H17.9314C20.4884 8.77598 22.9314 10.131 24.6317 12.496C24.6643 12.5411 24.661 12.6057 24.6219 12.6476L23.6056 13.7736L24.9867 13.2154C25.0421 13.1928 25.1073 13.2154 25.1366 13.267C26.2929 15.1964 26.902 17.4871 26.8988 19.8972C26.8955 22.3427 26.0551 24.8303 24.534 26.9016C24.5014 26.9467 24.4395 26.9629 24.3874 26.9435L23.5926 26.6176L24.1463 27.2371C24.1854 27.2823 24.1887 27.3468 24.1496 27.392C22.345 29.6085 19.9476 30.9861 17.8923 30.9861L17.9053 30.9829ZM11.8597 27.3371C13.5926 29.4665 15.8434 30.7345 17.8955 30.7377H17.9053C19.863 30.7377 22.1529 29.4278 23.9053 27.3145L23.0682 26.3789C23.0291 26.337 23.0258 26.2757 23.0584 26.2273C23.091 26.1821 23.1529 26.1627 23.205 26.1853L24.4004 26.6725C25.8564 24.6593 26.6577 22.2524 26.661 19.8875C26.6643 17.5613 26.0877 15.3448 24.9867 13.4703L23.2147 14.1866C23.1626 14.2091 23.1007 14.1898 23.0682 14.1446C23.0356 14.0994 23.0388 14.0349 23.0779 13.993L24.3809 12.5476C22.7294 10.2988 20.3874 9.00828 17.9379 9.00183H17.9248C15.4916 9.00183 13.1561 10.273 11.5014 12.4927L12.8239 13.9736C12.863 14.0156 12.8662 14.0769 12.8336 14.1253C12.8011 14.1704 12.7392 14.1866 12.6871 14.1672L10.8792 13.4284C9.76524 15.2996 9.17566 17.5194 9.1724 19.8552C9.16914 22.2492 9.94113 24.6657 11.3516 26.6693L12.6024 26.1627C12.6545 26.1401 12.7164 26.1595 12.7489 26.2047C12.7815 26.2498 12.7783 26.3144 12.7392 26.3563L11.8564 27.3339L11.8597 27.3371ZM17.9281 27.5275H17.902C16.863 27.5275 15.4818 27.4049 15.4818 26.3983C15.4818 25.5755 16.4232 25.0561 17.9053 25.0496C19.3776 25.0496 20.3255 25.5852 20.3255 26.4079C20.3255 27.4081 18.9639 27.5275 17.9248 27.5275H17.9281ZM17.902 27.2855C19.3841 27.2952 20.0812 27.008 20.0812 26.4047C20.0812 25.6368 18.99 25.2916 17.9053 25.2916H17.8955C16.8141 25.2916 15.7261 25.6336 15.7261 26.3983C15.7261 27.0016 16.4167 27.2823 17.902 27.2855ZM22.2082 20.0036H22.2017C21.5633 20.0036 20.9639 19.8423 20.5112 19.552C20.0421 19.2519 19.7815 18.8486 19.7848 18.4131C19.7848 17.542 20.8695 16.8322 22.2017 16.8322H22.2082C22.8467 16.8322 23.446 16.9935 23.8988 17.2838C24.3678 17.5839 24.6284 17.9872 24.6252 18.4227C24.6252 18.8551 24.3646 19.2584 23.8923 19.5584C23.4395 19.8456 22.8402 20.0036 22.2082 20.0036ZM22.2017 17.0774C21.003 17.0774 20.0291 17.6775 20.0291 18.4163C20.0291 18.7647 20.2473 19.097 20.6447 19.3519C21.0584 19.6165 21.6121 19.7617 22.205 19.7649H22.2115C22.8011 19.7649 23.3516 19.6197 23.7652 19.3584C24.1626 19.1067 24.3841 18.7744 24.3841 18.426C24.3841 18.0775 24.1659 17.7452 23.7685 17.4903C23.3548 17.2258 22.8011 17.0806 22.2082 17.0774H22.2017ZM13.6382 19.9875H13.6317C12.9932 19.9875 12.3939 19.8262 11.9411 19.5358C11.4721 19.2358 11.2115 18.8325 11.2147 18.3969C11.2147 17.5258 12.2994 16.816 13.6317 16.816H13.6382C14.2766 16.816 14.876 16.9773 15.3288 17.2677C15.7978 17.5678 16.0584 17.9711 16.0551 18.4066C16.0551 18.8389 15.7946 19.2422 15.3222 19.5423C14.8695 19.8294 14.2701 19.9875 13.6349 19.9875H13.6382ZM13.6284 17.0612C12.4297 17.0612 11.4558 17.6613 11.4558 18.4002C11.4558 18.7486 11.674 19.0809 12.0714 19.3358C12.4851 19.6004 13.0388 19.7455 13.6317 19.7488H13.6382C14.2278 19.7488 14.7783 19.6036 15.1919 19.3422C15.5893 19.0906 15.8108 18.7583 15.8108 18.4098C15.8108 18.0614 15.5926 17.7291 15.1952 17.4742C14.7815 17.2096 14.2278 17.0645 13.6349 17.0612H13.6284Z" fill="#3A1C1D"/>
<path d="M17.9442 23.4497H17.8856C17.0745 23.4497 16.5273 23.3046 16.2537 23.0239C16.0876 22.8561 16.0908 22.6948 16.0908 22.6786C16.0908 22.6109 16.1527 22.5657 16.2179 22.5625C16.2863 22.5625 16.3384 22.6206 16.3351 22.6883C16.3351 22.6883 16.3677 23.2078 17.8889 23.211H17.9345C17.9345 23.211 17.9442 23.211 17.9475 23.211C19.4556 23.211 19.4882 22.698 19.4882 22.6916C19.4882 22.627 19.5436 22.5722 19.612 22.5722C19.6771 22.5722 19.7325 22.6206 19.7325 22.6883C19.7325 22.7045 19.7325 22.8658 19.5664 23.0335C19.2928 23.311 18.7488 23.453 17.9442 23.453V23.4497Z" fill="#3A1C1D"/>
<path d="M0.120469 39.001C0.120469 39.001 0.107439 39.001 0.100925 39.001C0.0357782 38.9881 -0.00982436 38.9268 0.00320495 38.8622C0.622097 35.3552 1.74588 29.7736 3.5993 23.0887L3.68724 22.7725C3.71656 22.6628 3.77193 22.5628 3.84685 22.4821C4.77845 21.5045 7.38757 19.6945 7.49832 19.6171C7.50809 19.6107 7.51786 19.6074 7.52764 19.601C8.27031 19.3332 10.4332 19.1783 10.5276 19.1719C10.5667 19.1719 10.6026 19.1848 10.6286 19.2138C10.6416 19.2267 10.7491 19.359 10.697 19.5687C10.6221 19.8688 10.254 20.1559 9.60255 20.4172C8.42992 20.8883 7.96737 21.0173 7.84685 21.0464L6.91851 21.8433C7.83382 21.4303 9.29636 20.9625 11.0032 21.1174C11.026 21.1206 11.1726 21.1561 11.3127 21.2303C11.6058 21.3851 11.6123 21.5755 11.5895 21.6755C11.5309 21.9304 11.2214 22.0982 10.7491 22.2434C11.0227 22.3176 11.3387 22.4369 11.5146 22.6241C11.7328 22.8531 11.7361 23.0338 11.7035 23.1435C11.6579 23.2951 11.5146 23.4081 11.3061 23.4597C11.1596 23.4952 10.8729 23.5371 10.6221 23.5694C10.7426 23.6597 10.8338 23.792 10.8436 23.9759C10.8664 24.3985 10.4234 24.4502 9.99669 24.4986C9.68073 24.5341 9.32242 24.576 9.02601 24.7373C8.38757 25.0825 7.91851 25.6471 7.83382 25.7536C7.76216 26.0053 7.16607 27.983 5.89897 29.451C5.80125 29.5671 5.73936 29.693 5.71656 29.8317C5.61884 30.4318 5.36477 34.9196 5.42014 38.8816C5.42014 38.9493 5.36803 39.0042 5.29962 39.0042C5.23122 39.0139 5.17584 38.9526 5.17584 38.8848C5.12047 34.91 5.3778 30.3963 5.47552 29.793C5.50483 29.6155 5.58627 29.4413 5.7133 29.2961C7.00321 27.7991 7.5993 25.6891 7.60255 25.6665C7.60581 25.6504 7.61233 25.6375 7.6221 25.6246C7.6449 25.5955 8.1563 24.9309 8.90549 24.5244C9.24425 24.3405 9.64164 24.2953 9.96412 24.2566C10.4527 24.1985 10.6058 24.1533 10.596 23.9888C10.5798 23.6758 10.114 23.6307 10.1107 23.6307C10.0488 23.6242 9.99995 23.5726 9.99995 23.5113C9.99995 23.45 10.0456 23.3984 10.1074 23.3887C10.1172 23.3887 10.9706 23.2887 11.2442 23.2209C11.3615 23.1919 11.4462 23.137 11.4657 23.0725C11.4885 23.0015 11.4397 22.9015 11.3322 22.7886C11.0912 22.5337 10.4299 22.4079 10.1954 22.3821C10.1368 22.3756 10.0912 22.3272 10.0879 22.2692C10.0846 22.2111 10.1237 22.1595 10.1824 22.1433C10.4853 22.0724 11.2866 21.882 11.3485 21.6207C11.3778 21.4948 11.0944 21.3851 10.9641 21.3561C8.18887 21.1077 6.06835 22.5757 6.04881 22.5918C5.99669 22.6305 5.92177 22.6176 5.88268 22.5692C5.8436 22.5176 5.85011 22.4466 5.89897 22.4014L7.7133 20.8463C7.7133 20.8463 7.74913 20.8238 7.76868 20.8205C7.77194 20.8205 8.17259 20.7334 9.51461 20.1979C10.2605 19.8978 10.4267 19.6461 10.4625 19.5235C10.4723 19.4816 10.4723 19.4493 10.4657 19.4235C10.0618 19.4558 8.27682 19.601 7.62861 19.8268C7.4234 19.972 4.912 21.7239 4.02926 22.6499C3.9804 22.7015 3.94783 22.7628 3.92829 22.837L3.84034 23.1532C1.98366 29.8253 0.859883 35.4004 0.24099 38.9009C0.231218 38.959 0.179101 39.001 0.120469 39.001Z" fill="#3A1C1D"/>
<path d="M6.80146 23.533C6.76563 23.533 6.7298 23.5169 6.70699 23.4879C6.66465 23.4363 6.67116 23.3588 6.72328 23.3169C8.02621 22.2651 10.1109 22.1393 10.1989 22.1328C10.2673 22.1328 10.3226 22.1812 10.3259 22.2457C10.3291 22.3135 10.277 22.3683 10.2119 22.3748C10.1923 22.3748 8.11742 22.5006 6.87638 23.504C6.85357 23.5234 6.82752 23.5298 6.7982 23.5298L6.80146 23.533Z" fill="#3A1C1D"/>
<path d="M7.39385 24.7405C7.36779 24.7405 7.34173 24.7341 7.32219 24.7179C7.26681 24.6792 7.25704 24.6018 7.29613 24.5502C8.15606 23.4016 10.0355 23.3887 10.117 23.3887C10.1854 23.3887 10.2408 23.4435 10.2408 23.508C10.2408 23.5726 10.1854 23.6306 10.117 23.6306C10.0974 23.6306 8.27984 23.6436 7.49157 24.6953C7.46877 24.7276 7.42968 24.7437 7.39385 24.7437V24.7405Z" fill="#3A1C1D"/>
<path d="M35.8762 39.0007C35.8176 39.0007 35.7655 38.9587 35.7557 38.9007C35.1368 35.3936 34.013 29.8153 32.1629 23.1432L32.0782 22.8303C32.0586 22.7561 32.0228 22.6948 31.9772 22.6431C31.0977 21.7172 28.5863 19.9621 28.3778 19.8201C27.7296 19.5943 25.9446 19.4491 25.5407 19.4168C25.5342 19.4426 25.5342 19.4749 25.544 19.5168C25.5765 19.6394 25.7459 19.8911 26.4918 20.1911C27.8306 20.7299 28.2345 20.8138 28.2378 20.8138C28.2573 20.817 28.2769 20.8267 28.2932 20.8396L30.1075 22.3947C30.1563 22.4367 30.1629 22.5109 30.1238 22.5625C30.0847 22.6141 30.0098 22.6238 29.9576 22.5851C29.9381 22.5689 27.8143 21.101 25.0261 21.3526C24.9088 21.3816 24.6287 21.4913 24.658 21.6139C24.7199 21.8753 25.5212 22.0656 25.8241 22.1366C25.8827 22.1495 25.9218 22.2044 25.9186 22.2624C25.9153 22.3205 25.8697 22.3689 25.8111 22.3754C25.5765 22.4012 24.9153 22.5302 24.6743 22.7819C24.5668 22.8948 24.5212 22.9948 24.5407 23.0658C24.5603 23.1303 24.6417 23.1884 24.7622 23.2142C25.0358 23.2787 25.8925 23.382 25.899 23.382C25.9609 23.3884 26.0065 23.4433 26.0065 23.5046C26.0065 23.5659 25.9576 23.6175 25.8958 23.624C25.8925 23.624 25.4267 23.6691 25.4072 23.9821C25.3974 24.1498 25.5505 24.195 26.0391 24.2499C26.3616 24.2886 26.7589 24.3337 27.0977 24.5176C27.8469 24.9242 28.3583 25.5888 28.3811 25.6178C28.3909 25.6307 28.3974 25.6436 28.4006 25.6598C28.4072 25.6824 29.0032 27.7956 30.2899 29.2894C30.4169 29.4378 30.4984 29.6088 30.5277 29.7863C30.6254 30.3928 30.8827 34.9065 30.8274 38.8781C30.8274 38.9458 30.7818 39.0104 30.7036 38.9975C30.6352 38.9975 30.5831 38.9426 30.5831 38.8749C30.6384 34.9161 30.3844 30.4251 30.2866 29.825C30.2638 29.6895 30.2019 29.5604 30.1042 29.4443C28.8404 27.9763 28.2443 25.9985 28.1694 25.7469C28.0847 25.6404 27.6124 25.0758 26.9772 24.7306C26.6808 24.5693 26.3225 24.5273 26.0065 24.4918C25.5798 24.4434 25.1368 24.3918 25.1596 23.9692C25.1694 23.7853 25.2606 23.6562 25.3811 23.5627C25.1303 23.5272 24.8436 23.4852 24.6971 23.453C24.4886 23.4046 24.3453 23.2884 24.2997 23.1368C24.2671 23.0271 24.2736 22.8464 24.4886 22.6173C24.6645 22.4302 24.9804 22.3108 25.2541 22.2366C24.7817 22.0914 24.4723 21.9237 24.4137 21.6688C24.3909 21.5688 24.3941 21.3752 24.6905 21.2236C24.8306 21.1493 24.9772 21.1171 24.9837 21.1139C26.7003 20.959 28.1694 21.4268 29.0847 21.8398L28.1531 21.0429C28.0326 21.0138 27.57 20.8848 26.3974 20.4137C25.7459 20.1524 25.3746 19.8653 25.3029 19.5652C25.2508 19.3587 25.3616 19.2265 25.3713 19.2103C25.3974 19.1813 25.4332 19.1651 25.4723 19.1684C25.5635 19.1748 27.7264 19.3297 28.4723 19.5975C28.4821 19.6007 28.4918 19.6072 28.5016 19.6136C28.6124 19.691 31.2215 21.501 32.1531 22.4786C32.228 22.556 32.2834 22.6593 32.3127 22.769L32.3974 23.0787C34.2508 29.7604 35.3746 35.3452 35.9935 38.8587C36.0065 38.9233 35.9609 38.9878 35.8958 38.9975C35.8892 38.9975 35.8827 38.9975 35.8762 38.9975V39.0007Z" fill="#3A1C1D"/>
<path d="M29.1986 23.5339C29.1726 23.5339 29.1433 23.5242 29.1205 23.5081C27.8794 22.5047 25.8045 22.3821 25.785 22.3788C25.7166 22.3756 25.6644 22.3175 25.671 22.2498C25.6775 22.182 25.7328 22.1336 25.798 22.1369C25.8859 22.1433 27.9706 22.2659 29.2736 23.3209C29.3257 23.3629 29.3322 23.4403 29.2899 23.4919C29.2671 23.521 29.2312 23.5371 29.1954 23.5371L29.1986 23.5339Z" fill="#3A1C1D"/>
<path d="M28.6057 24.7398C28.5699 24.7398 28.5308 24.7237 28.508 24.6914C27.723 23.6429 25.9021 23.6267 25.8826 23.6267C25.8142 23.6267 25.7588 23.5719 25.7588 23.5041C25.7588 23.4364 25.8142 23.3848 25.8826 23.3848C25.9607 23.3848 27.8435 23.3977 28.7034 24.5462C28.7425 24.6011 28.7327 24.6753 28.6774 24.714C28.6546 24.7301 28.6285 24.7366 28.6057 24.7366V24.7398Z" fill="#3A1C1D"/>
</g>
<defs>
<clipPath id="clip0_16_269">
<rect width="36" height="39" fill="white"/>
</clipPath>
</defs>
</svg>
