<svg width="56" height="42" viewBox="0 0 56 42" fill="none" xmlns="http://www.w3.org/2000/svg">
<g clip-path="url(#clip0_16_18)">
<path d="M1.11262 30.9804V27.3693C1.37441 27.2433 1.73808 27.3755 1.97579 27.2763C2.11039 27.22 2.23017 26.9507 2.34502 26.8467C2.64941 26.5719 3.28167 26.2493 3.49159 26.0247C3.70152 25.8001 4.18621 24.6739 4.44553 24.2773C7.89452 19.0101 15.0648 17.4262 20.4328 20.856C25.7248 24.2375 27.3554 31.1823 24.0448 36.5444C23.9089 36.7641 23.2637 37.5781 23.2297 37.695C23.1482 37.9772 23.2452 38.5543 23.2087 38.8983C23.0396 40.5006 21.5787 41.8514 19.9771 41.9989L3.30513 41.9958C1.62941 41.8324 0.193875 40.3947 0.0605089 38.7245C-0.132748 36.3045 0.212398 33.6378 0.0598914 31.1909L0.155594 30.9797H1.11262V30.9804ZM23.2168 36.9171C23.4749 36.6974 23.6724 36.3375 23.8447 36.0401C26.6948 31.1248 25.3265 24.8545 20.7044 21.566C15.079 17.5639 7.26659 19.5144 4.19979 25.5938L5.77487 24.8612C12.5747 15.3055 27.6679 22.7595 23.6953 33.994C23.6298 34.1789 23.2168 34.9923 23.2168 35.0498V36.9165V36.9171ZM23.2168 33.8569C23.4495 33.5846 23.5366 33.1072 23.6187 32.7559C25.3797 25.2535 18.0939 18.8718 10.7909 21.5091C9.15717 22.0991 7.65989 23.1971 6.60779 24.5533C8.3897 23.9713 10.2124 23.456 12.0807 23.216C12.3536 23.1812 13.4255 23.0349 13.607 23.0943C13.7379 23.1371 13.7435 23.3446 13.6774 23.4523C13.6385 23.5159 13.3989 23.62 13.3088 23.6983C12.9501 24.0099 12.4604 24.4309 12.9359 24.8606C14.1627 25.969 18.9676 25.9641 20.789 26.8687C20.9514 26.9495 21.3379 27.2745 21.4083 27.2953C21.6219 27.3589 21.8899 27.25 22.1066 27.3369C22.232 27.4122 22.2233 27.8002 22.2313 27.9465C22.2807 28.9 22.2289 29.9417 22.1832 30.8904C22.2209 31.1046 23.0717 30.8518 23.2174 31.0716V33.8563L23.2168 33.8569ZM2.53272 27.3081H20.6236L20.1 27.0621C18.4415 26.5584 16.6899 26.4458 15.0043 26.0541C13.8565 25.7872 11.2188 25.1629 12.7821 23.6047C11.851 23.6475 10.8668 23.8287 9.94131 24.0325C7.38267 24.5968 4.49986 25.5595 2.53272 27.3075V27.3081ZM21.7967 27.7366H1.54482V28.777C2.3975 28.7299 3.25635 28.7476 4.10964 28.7183C9.63692 28.5279 15.1802 28.3927 20.7186 28.1674C21.0613 28.1534 21.4324 28.0499 21.7967 28.1038V27.7359V27.7366ZM21.7967 28.5322L1.54482 29.2054V30.1235L21.7967 29.4503V28.5322ZM21.7967 29.8787L1.5442 30.5513V30.9804H21.7967V29.8787ZM22.7846 31.4088H0.495183V38.845C0.495183 40.0771 2.16967 41.6023 3.42553 41.5711L20.0296 41.5607C21.141 41.5607 22.7846 40.0391 22.7846 38.9668V31.4082V31.4088Z" fill="#131F67"/>
</g>
<g clip-path="url(#clip1_16_18)">
<path d="M48.4404 41.3648C46.6127 41.3648 44.893 41.1577 43.5974 40.7812C42.255 40.3912 41.5156 39.8527 41.5156 39.2647C41.5156 39.2312 41.5242 16.3584 41.5247 16.1274C41.4824 14.8118 42.1715 13.5093 43.5174 12.3637C44.5254 11.5067 45.5288 11.0442 45.571 11.0252L45.5962 11.0137H51.2842L51.3093 11.0252C51.3516 11.0447 52.3555 11.5067 53.3629 12.3637C54.7084 13.5083 55.3974 14.8103 55.3557 16.1294C55.3557 16.4669 55.3647 39.2312 55.3647 39.2647C55.3647 39.8527 54.6254 40.3912 53.283 40.7812C51.9878 41.1577 50.2677 41.3648 48.4399 41.3648H48.4404ZM45.652 11.2637C45.3185 11.4237 41.6831 13.2358 41.7762 16.1234C41.7762 16.3584 41.7676 39.2312 41.7676 39.2647C41.7676 40.1582 44.4489 41.1147 48.4409 41.1147C52.433 41.1147 55.1143 40.1582 55.1143 39.2647C55.1143 39.2312 55.1057 16.3584 55.1052 16.1274V16.1234C55.1982 13.2338 51.5628 11.4232 51.2294 11.2637H45.653H45.652Z" fill="#131F67"/>
<path d="M48.4402 41.4405C46.6054 41.4405 44.8782 41.232 43.576 40.854C42.1984 40.454 41.4399 39.8895 41.4399 39.2655C41.4399 39.2435 41.4485 16.3221 41.449 16.1281C41.4057 14.7901 42.1044 13.468 43.4684 12.3075C44.4839 11.4435 45.4973 10.977 45.5396 10.9575L45.5793 10.9395H51.3005L51.3403 10.9575C51.383 10.977 52.3965 11.4435 53.4115 12.3075C54.775 13.4675 55.4731 14.7901 55.4309 16.1321C55.4309 16.5087 55.4399 39.2115 55.4399 39.265C55.4399 39.889 54.6815 40.4535 53.3038 40.8535C52.0017 41.2315 50.2745 41.44 48.4397 41.44L48.4402 41.4405ZM45.6125 11.0895L45.6025 11.094C45.5607 11.113 44.5659 11.571 43.5665 12.4215C42.2381 13.5515 41.5581 14.8321 41.5999 16.1256C41.5999 16.3226 41.5908 39.2435 41.5908 39.2655C41.5908 39.817 42.3111 40.33 43.6183 40.71C44.9069 41.0845 46.6195 41.2905 48.4397 41.2905C50.2599 41.2905 51.9725 41.0845 53.2611 40.71C54.5688 40.33 55.2885 39.817 55.2885 39.2655C55.2885 39.212 55.28 16.5087 55.2795 16.1301C55.3202 14.8326 54.6402 13.551 53.3129 12.4215C52.3135 11.571 51.3187 11.113 51.2769 11.094L51.2668 11.0895H45.6115H45.6125ZM48.4402 41.1905C44.2716 41.1905 41.6914 40.1915 41.6914 39.2655C41.6914 39.2535 41.6924 36.2784 41.6939 32.4652C41.6965 25.692 41.7 16.2746 41.7 16.1241C41.6059 13.2055 45.2076 11.394 45.6186 11.197L45.6342 11.1895H51.2452L51.2608 11.197C51.6717 11.3935 55.2735 13.2035 55.1794 16.1266C55.1794 16.3226 55.1885 39.2435 55.1885 39.2655C55.1885 40.1915 52.6082 41.1905 48.4397 41.1905H48.4402ZM45.6689 11.3395C45.2001 11.5665 41.7613 13.329 41.8509 16.1216C41.8509 16.2746 41.8473 25.6915 41.8448 32.4652C41.8433 36.2784 41.8423 39.2535 41.8423 39.2655C41.8423 40.105 44.5518 41.0405 48.4402 41.0405C52.3286 41.0405 55.0381 40.105 55.0381 39.2655C55.0381 39.2435 55.0295 16.3226 55.029 16.1281V16.1216C55.119 13.3265 51.6798 11.566 51.211 11.3395H45.6689Z" fill="#131F67"/>
<path d="M51.2416 11.2379H45.6386C45.5471 11.2379 45.4727 11.1639 45.4727 11.0729V10.5029C45.4727 10.4119 45.5471 10.3379 45.6386 10.3379H51.2416C51.3332 10.3379 51.4076 10.4119 51.4076 10.5029V11.0729C51.4076 11.1639 51.3332 11.2379 51.2416 11.2379ZM45.7246 10.9879H51.1566V10.5879H45.7246V10.9879Z" fill="#131F67"/>
<path d="M51.2414 11.3137H45.6384C45.5051 11.3137 45.397 11.2062 45.397 11.0737V10.5037C45.397 10.3712 45.5051 10.2637 45.6384 10.2637H51.2414C51.3747 10.2637 51.4828 10.3712 51.4828 10.5037V11.0737C51.4828 11.2062 51.3747 11.3137 51.2414 11.3137ZM45.6389 10.4137C45.5891 10.4137 45.5484 10.4542 45.5484 10.5037V11.0737C45.5484 11.1232 45.5891 11.1637 45.6389 11.1637H51.2419C51.2917 11.1637 51.3324 11.1232 51.3324 11.0737V10.5037C51.3324 10.4542 51.2917 10.4137 51.2419 10.4137H45.6389ZM51.2319 11.0637H45.649V10.5137H51.2319V11.0637ZM45.7998 10.9137H51.081V10.6637H45.7998V10.9137Z" fill="#131F67"/>
<path d="M51.0809 9.53715H45.7998V8.41211H51.0809V9.53715ZM46.0513 9.11213H50.8294V8.66212H46.0513V9.11213Z" fill="#131F67"/>
<path d="M51.1561 9.61294H45.7241V8.33789H51.1561V9.61294ZM45.875 9.46293H51.0052V8.4879H45.875V9.46293ZM50.9046 9.18792H45.9756V8.5879H50.9046V9.18792ZM46.1265 9.03792H50.7538V8.7379H46.1265V9.03792Z" fill="#131F67"/>
<path d="M51.0809 10.5871H45.7998V9.53711H51.0809V10.5871ZM46.0513 10.3371H50.8294V9.78712H46.0513V10.3371Z" fill="#131F67"/>
<path d="M51.1561 10.6629H45.7241V9.46289H51.1561V10.6629ZM45.875 10.5129H51.0052V9.6129H45.875V10.5129ZM50.9046 10.4129H45.9756V9.7129H50.9046V10.4129ZM46.1265 10.2629H50.7538V9.8629H46.1265V10.2629Z" fill="#131F67"/>
<path d="M51.5356 8.66369H45.3442C45.2164 8.66369 45.1128 8.56069 45.1128 8.43369V8.03367H45.3643C45.3643 8.02267 45.3552 8.01367 45.3442 8.01367H51.5356C51.5246 8.01367 51.5155 8.02267 51.5155 8.03367H51.767V8.43369C51.767 8.56069 51.6634 8.66369 51.5356 8.66369ZM45.3648 8.41369H51.516V8.26368H45.3648V8.41369Z" fill="#131F67"/>
<path d="M51.5354 8.73948H45.3439C45.1749 8.73948 45.0371 8.60248 45.0371 8.43447V7.95945H45.3439V7.93945H51.5354V7.95945H51.8422V8.43447C51.8422 8.60248 51.7044 8.73948 51.5354 8.73948ZM45.1885 8.10946V8.43447C45.1885 8.51997 45.2584 8.58948 45.3444 8.58948H51.5359C51.6219 8.58948 51.6918 8.51997 51.6918 8.43447V8.10946H51.4403V8.08946H45.44V8.10946H45.1885ZM51.5354 8.03446V8.08946C51.5661 8.08946 51.5907 8.06496 51.5907 8.03446H51.5354ZM45.2891 8.03446C45.2891 8.06496 45.3137 8.08946 45.3444 8.08946V8.03446H45.2891ZM51.5912 8.48947H45.2891V8.18946H51.5912V8.48947Z" fill="#131F67"/>
<path d="M51.5356 8.66333H45.3442C45.2164 8.66333 45.1128 8.56033 45.1128 8.43332V4.77669C45.1128 4.64519 45.1938 4.49518 46.161 4.37818C46.7706 4.30417 47.5798 4.26367 48.4399 4.26367C49.3 4.26367 50.1092 4.30417 50.7188 4.37818C51.686 4.49568 51.767 4.64569 51.767 4.77669V8.43332C51.767 8.56033 51.6634 8.66333 51.5356 8.66333ZM45.3648 8.41332H51.516V4.80619C51.3395 4.67969 50.2108 4.51318 48.4404 4.51318C46.67 4.51318 45.5418 4.67969 45.3648 4.80619V8.41332Z" fill="#131F67"/>
<path d="M51.5354 8.73912H45.3439C45.1749 8.73912 45.0371 8.60211 45.0371 8.4341V4.77747C45.0371 4.56347 45.2197 4.41746 46.1517 4.30446C46.7643 4.22995 47.5766 4.18945 48.4397 4.18945C49.3027 4.18945 50.115 4.23045 50.7276 4.30446C51.6596 4.41746 51.8422 4.56347 51.8422 4.77747V8.4341C51.8422 8.60211 51.7044 8.73912 51.5354 8.73912ZM48.4402 4.33896C47.5831 4.33896 46.7769 4.37946 46.1703 4.45296C45.1885 4.57197 45.1885 4.72097 45.1885 4.77697V8.4336C45.1885 8.51911 45.2584 8.58861 45.3444 8.58861H51.5359C51.6219 8.58861 51.6918 8.51911 51.6918 8.4336V4.77697C51.6918 4.72097 51.6918 4.57197 50.71 4.45296C50.1035 4.37946 49.2972 4.33896 48.4402 4.33896ZM51.5912 8.48911H45.2891V4.76847L45.3203 4.74597C45.5315 4.59497 46.7562 4.43896 48.4402 4.43896C50.1241 4.43896 51.3488 4.59497 51.56 4.74597L51.5912 4.76847V8.48911ZM45.44 8.3391H51.4403V4.85098C51.2175 4.75097 50.202 4.58897 48.4402 4.58897C46.6783 4.58897 45.6628 4.75097 45.44 4.85098V8.3391Z" fill="#131F67"/>
<path d="M50.5333 4.60795L50.3955 4.59495C49.8322 4.54145 49.1562 4.51345 48.4405 4.51345C47.7248 4.51345 47.0488 4.54145 46.4855 4.59495L46.3477 4.60795V3.3269C46.3477 3.1724 46.5272 3.0954 47.0342 3.03389C47.4104 2.98839 47.9099 2.96289 48.4405 2.96289C48.9711 2.96289 49.4701 2.98789 49.8468 3.03389C50.3538 3.0954 50.5333 3.1719 50.5333 3.3269V4.60795ZM48.4405 4.26344C49.1069 4.26344 49.7396 4.28744 50.2818 4.33394V3.37491C50.1219 3.3034 49.4419 3.2139 48.4405 3.2139C47.4391 3.2139 46.7591 3.3034 46.5991 3.37491V4.33394C47.1413 4.28794 47.7741 4.26344 48.4405 4.26344Z" fill="#131F67"/>
<path d="M50.6085 4.69074L50.3882 4.66974C49.8274 4.61673 49.1535 4.58873 48.4402 4.58873C47.727 4.58873 47.0531 4.61673 46.4923 4.66974L46.272 4.69074V3.32719C46.272 3.09518 46.5365 3.01918 47.0249 2.96017C47.4041 2.91417 47.9071 2.88867 48.4402 2.88867C48.9734 2.88867 49.4764 2.91417 49.8556 2.96017C50.344 3.01918 50.6085 3.09568 50.6085 3.32719V4.69074ZM48.4402 4.43873C49.1585 4.43873 49.837 4.46723 50.4028 4.52073L50.4581 4.52573V3.32719C50.4581 3.22568 50.2786 3.16218 49.838 3.10868C49.4643 3.06318 48.9684 3.03818 48.4408 3.03818C47.9131 3.03818 47.4172 3.06318 47.0435 3.10868C46.6029 3.16218 46.4234 3.22518 46.4234 3.32719V4.52573L46.4782 4.52073C47.044 4.46723 47.7225 4.43873 48.4408 4.43873H48.4402ZM50.357 4.41573L50.2751 4.40873C49.7359 4.36272 49.1016 4.33872 48.4402 4.33872C47.7789 4.33872 47.1441 4.36272 46.6054 4.40873L46.5235 4.41573V3.32619L46.5677 3.30619C46.7493 3.22468 47.467 3.13818 48.4402 3.13818C49.4135 3.13818 50.1312 3.22468 50.3128 3.30619L50.357 3.32619V4.41573ZM48.4402 4.18872C49.0725 4.18872 49.6811 4.21072 50.2062 4.25272V3.42769C49.9994 3.36569 49.3697 3.28919 48.4402 3.28919C47.5108 3.28919 46.8811 3.36569 46.6743 3.42769V4.25272C47.1994 4.21072 47.808 4.18872 48.4402 4.18872Z" fill="#131F67"/>
<path d="M50.3015 3.37301L50.1471 3.33751C49.8121 3.26001 49.1583 3.212 48.4406 3.212C47.7228 3.212 47.0685 3.26001 46.734 3.33751L46.5796 3.37301V0.919922L50.1089 0.964424C50.125 0.961923 50.1416 0.959423 50.1582 0.956923L50.3015 0.936922V3.37301ZM48.4406 2.96199C49.0798 2.96199 49.6743 3 50.05 3.0635V1.21343L46.8311 1.17293V3.0635C47.2068 3 47.8013 2.96199 48.4406 2.96199Z" fill="#131F67"/>
<path d="M50.3767 3.46734L50.1298 3.41034C49.8003 3.33434 49.153 3.28684 48.4403 3.28684C47.7276 3.28684 47.0803 3.33434 46.7509 3.41034L46.5039 3.46734V0.84375L50.1031 0.889252C50.1177 0.887252 50.1323 0.884751 50.1474 0.882751L50.3767 0.85025V3.46734ZM48.4403 3.13683C49.1636 3.13683 49.824 3.18583 50.164 3.26434L50.2258 3.27884V1.02326L50.1685 1.03126C50.1524 1.03376 50.1363 1.03576 50.1202 1.03826L50.1142 1.03926H50.1076L46.6548 0.995755V3.27834L46.7167 3.26384C47.0567 3.18533 47.7171 3.13633 48.4403 3.13633V3.13683ZM50.1252 3.15233L50.0372 3.13733C49.664 3.07433 49.067 3.03683 48.4403 3.03683C47.8136 3.03683 47.2166 3.07433 46.8434 3.13733L46.7554 3.15233V1.09676L50.1252 1.13926V3.15233ZM48.4403 2.88682C49.0283 2.88682 49.5916 2.91982 49.9744 2.97583V1.28727L46.9063 1.24876V2.97533C47.289 2.91932 47.8524 2.88632 48.4403 2.88632V2.88682Z" fill="#131F67"/>
<path d="M53.9812 0.91886L53.9465 0.90586C53.4129 0.707352 51.8954 0.286337 49.3313 0.662351C47.5574 0.92236 46.4835 0.92186 46.1968 0.91536L46.0439 0.91186L46.145 0.458844L46.2507 0.463344C46.2617 0.463844 47.3833 0.509845 49.3952 0.214335C52.4623 -0.235681 54.4097 0.539346 54.4907 0.572348L54.5777 0.605349L53.9812 0.91836V0.91886Z" fill="#131F67"/>
<path d="M53.9865 1.00078L53.9201 0.975779C53.392 0.779272 51.8892 0.362757 49.3427 0.73627C47.5622 0.99728 46.4838 0.99678 46.1956 0.990279L45.9507 0.984779L46.0855 0.381258L46.2545 0.388758C46.2655 0.388758 47.3726 0.43576 49.3849 0.140749C52.4716 -0.312267 54.4382 0.470261 54.5202 0.503762L54.7611 0.594765L53.987 1.00078H53.9865ZM46.1373 0.839274L46.1986 0.840774C46.4838 0.847274 47.5516 0.848274 49.3205 0.588765C51.9023 0.210252 53.4343 0.635767 53.973 0.836274L53.976 0.837274L54.3949 0.617266C54.0177 0.479261 52.1723 -0.11626 49.406 0.289754C47.3877 0.585765 46.2575 0.539763 46.2464 0.539263L46.2047 0.537263L46.1373 0.839274Z" fill="#131F67"/>
<path d="M54.1851 1.37915L54.1127 1.36965C54.0855 1.36615 51.365 1.01663 50.1372 1.21114L50.1267 1.21264H50.1161L45.9878 1.16064L46.1447 0.458115C46.1558 0.458115 47.383 0.509117 49.3949 0.214106C52.4619 -0.23541 54.4924 0.570619 54.5774 0.60512L54.7288 0.666622L54.1846 1.37915H54.1851ZM51.1195 0.902131C52.3005 0.902131 53.7304 1.07064 54.0729 1.11314L54.3264 0.781626C53.7953 0.60562 51.9534 0.0926018 49.4321 0.462115C47.724 0.712624 46.6698 0.721124 46.3454 0.716124L46.3006 0.915631L50.1086 0.963633C50.3912 0.919631 50.7428 0.902631 51.1195 0.902631V0.902131Z" fill="#131F67"/>
<path d="M54.2186 1.45964L54.1029 1.44464C54.0758 1.44114 51.3713 1.09213 50.1491 1.28614L50.132 1.28864H50.1149L45.8936 1.23514L46.0847 0.381105L46.1481 0.384105C46.1601 0.384605 47.3848 0.434107 49.3836 0.140597C52.4708 -0.31192 54.5199 0.501109 54.6059 0.536111L54.8483 0.634614L54.2186 1.45964ZM51.1103 1.07813C52.4321 1.07813 54.1009 1.29364 54.1225 1.29614L54.1512 1.30014L54.6094 0.700117L54.5486 0.675616C54.4646 0.641614 52.4522 -0.157414 49.4057 0.289602C47.6454 0.547611 46.4815 0.542111 46.2049 0.536111L46.0812 1.08813L50.121 1.13913H50.1255C50.3976 1.09513 50.7401 1.07863 51.1103 1.07863V1.07813ZM54.1064 1.19313L54.0632 1.18763C53.6659 1.13813 52.2797 0.977127 51.1188 0.977127C50.7124 0.977127 50.3765 0.997127 50.1195 1.03713L50.1134 1.03813H50.1069L46.2059 0.989127L46.2839 0.640114L46.3452 0.641114C46.7119 0.646615 47.7455 0.633614 49.4198 0.388105C51.9658 0.0145921 53.8364 0.540611 54.3494 0.710617L54.4495 0.743618L54.1064 1.19313ZM51.1193 0.827621C52.25 0.827621 53.5899 0.979127 54.0391 1.03363L54.2015 0.820621C53.5829 0.628614 51.8104 0.189098 49.4425 0.536611C47.8425 0.771119 46.821 0.79562 46.4051 0.79212L46.394 0.842122L50.1029 0.888623C50.3664 0.848122 50.7084 0.827621 51.1193 0.827621Z" fill="#131F67"/>
<path d="M54.2012 1.36995L53.5811 1.30194L53.9095 0.669922L54.4622 0.736424L54.2012 1.36995ZM53.9729 1.09344L54.081 1.10544L54.2334 0.88943L54.0709 0.90543L53.9734 1.09344H53.9729Z" fill="#131F67"/>
<path d="M54.2495 1.45137L53.4639 1.36487L53.8667 0.589844L54.5694 0.674347L54.2495 1.45137ZM53.6988 1.23987L54.1529 1.28987L54.3078 0.914355L54.1172 1.18536L53.8557 1.15686L54.0227 0.835852L54.3541 0.802851L54.3551 0.800351L53.9527 0.75185L53.6988 1.24037V1.23987Z" fill="#131F67"/>
</g>
<g clip-path="url(#clip2_16_18)">
<path d="M37.7751 36.2292H27.745C26.8282 36.2292 26.0681 35.5183 26.0142 34.6114C26.0125 34.5864 26.012 34.5681 26.012 34.5581L24.9624 25.8887H40.5572L39.5076 34.5575C39.5076 34.5675 39.507 34.5853 39.5059 34.6092C39.452 35.5183 38.6919 36.2287 37.7751 36.2287V36.2292ZM25.2758 26.1664L26.2898 34.5403V34.5487C26.2898 34.5487 26.2898 34.5664 26.2915 34.5942C26.3365 35.3556 26.9749 35.9515 27.745 35.9515H37.7751C38.5452 35.9515 39.1836 35.3556 39.2281 34.5948C39.2292 34.567 39.2298 34.5498 39.2298 34.5481L39.2309 34.5314L40.2438 26.1658H25.2758V26.1664Z" fill="#131F67"/>
<path d="M37.7753 36.3133H27.7451C26.7845 36.3133 25.9877 35.5679 25.9316 34.6171C25.9299 34.5938 25.9293 34.576 25.9293 34.5649L24.8687 25.8066H40.6518L39.5911 34.5649C39.5911 34.5755 39.5905 34.5927 39.5894 34.6149C39.5333 35.5679 38.7365 36.3138 37.7753 36.3138V36.3133ZM25.0565 25.9727L26.0955 34.5527V34.5572C26.0955 34.5666 26.096 34.5838 26.0977 34.6071C26.1488 35.4707 26.8722 36.1472 27.7451 36.1472H37.7753C38.6482 36.1472 39.3716 35.4702 39.4227 34.606C39.4238 34.5838 39.4244 34.5672 39.4244 34.5577V34.5488L40.4634 25.9733H25.0565V25.9727ZM37.7753 36.0356H27.7451C26.9311 36.0356 26.2561 35.4052 26.2088 34.5999C26.2072 34.5699 26.2066 34.5522 26.2066 34.5499V34.546L25.182 26.0838H40.3378L39.3133 34.5544C39.3133 34.5544 39.3133 34.5677 39.3121 34.5999C39.2644 35.4058 38.5898 36.0361 37.7758 36.0361L37.7753 36.0356ZM25.3698 26.2504L26.3733 34.536V34.5494C26.3733 34.5494 26.3733 34.5649 26.375 34.5899C26.4172 35.3075 27.0189 35.869 27.7451 35.869H37.7753C38.5009 35.869 39.1032 35.3075 39.1455 34.5905C39.1466 34.5666 39.1466 34.551 39.1466 34.5488L39.1477 34.5272L40.15 26.2498H25.3698V26.2504Z" fill="#131F67"/>
<path d="M40.5237 26.1684H24.9962L21.9724 1.20085C21.9469 1.11532 21.838 0.700452 22.0575 0.39444C22.2058 0.188395 22.4603 0.0839844 22.8148 0.0839844H42.7056C43.0601 0.0839844 43.3151 0.188395 43.4629 0.394995C43.6824 0.700452 43.5735 1.11587 43.548 1.20085L40.5242 26.1684H40.5237ZM25.2423 25.8907H40.2775L43.2751 1.14031L43.2796 1.12698C43.2818 1.12032 43.3935 0.772651 43.2368 0.555499C43.144 0.426652 42.9651 0.361117 42.7056 0.361117H22.8148C22.5559 0.361117 22.3769 0.426652 22.2842 0.554944C22.1264 0.773207 22.2397 1.12309 22.2408 1.12643L22.2469 1.15364L25.2423 25.8896V25.8907Z" fill="#131F67"/>
<path d="M40.5977 26.251H24.9223L24.9135 26.1777L21.8908 1.21683C21.8608 1.11409 21.7531 0.675338 21.9903 0.344889C22.1548 0.116074 22.432 0 22.8149 0H42.7057C43.0885 0 43.3663 0.116074 43.5308 0.345444C43.7675 0.675338 43.6597 1.11464 43.6297 1.21683L40.5982 26.2504L40.5977 26.251ZM25.0701 26.0844H40.4499L43.4658 1.18295L43.468 1.17629C43.4902 1.10187 43.5925 0.717547 43.3952 0.443191C43.2636 0.259916 43.0319 0.167168 42.7057 0.167168H22.8149C22.4893 0.167168 22.257 0.259916 22.1259 0.443191C21.9286 0.718102 22.0303 1.10242 22.0531 1.17684L22.0559 1.19073L25.0707 26.0849L25.0701 26.0844ZM40.3515 25.9733H25.1685L22.1603 1.14852C22.1459 1.10298 22.042 0.747537 22.2164 0.505948C22.3259 0.35433 22.527 0.277133 22.8149 0.277133H42.7057C42.9935 0.277133 43.1947 0.35433 43.3041 0.505948C43.4852 0.756423 43.3641 1.13575 43.3586 1.15185L43.3563 1.15796L40.351 25.9727L40.3515 25.9733ZM25.3163 25.8067H40.2037L43.1935 1.12131L43.2008 1.09965C43.2008 1.09965 43.3002 0.785858 43.1691 0.603694C43.0924 0.497617 42.9368 0.444301 42.7057 0.444301H22.8149C22.5843 0.444301 22.4281 0.498173 22.352 0.603694C22.2203 0.785858 22.3192 1.09742 22.3203 1.10076L22.3298 1.14408L25.3163 25.8067Z" fill="#131F67"/>
<path d="M37.9144 40.0057H37.7755C37.0843 40.0057 36.3959 39.913 35.7308 39.7302C35.0629 39.547 34.424 39.2754 33.8317 38.9233L33.8161 38.9127C33.5172 38.6745 33.1421 38.5434 32.7604 38.5434C32.3787 38.5434 32.0026 38.6745 31.7042 38.9127L31.6886 38.9238C31.0952 39.2765 30.4563 39.5481 29.7901 39.7308C29.1244 39.9135 28.4366 40.0063 27.7454 40.0063H27.6064V35.9531H37.9144V40.0063V40.0057ZM27.8843 36.2303V39.7269C28.5038 39.7152 29.12 39.6264 29.7167 39.4625C30.3557 39.2871 30.9685 39.0271 31.5386 38.6895C31.8848 38.4157 32.3182 38.2652 32.7604 38.2652C33.2027 38.2652 33.635 38.4157 33.9817 38.6895C34.5501 39.0266 35.1635 39.2865 35.8041 39.4625C36.4009 39.6264 37.0165 39.7152 37.6366 39.7269V36.2303H27.8843Z" fill="#131F67"/>
<path d="M37.9976 40.0889H37.7754C37.0764 40.0889 36.3813 39.995 35.7084 39.8107C35.0333 39.6252 34.3877 39.3508 33.7887 38.9948L33.7637 38.9776C33.4793 38.751 33.1231 38.626 32.7597 38.626C32.3963 38.626 32.0391 38.751 31.7557 38.9776L31.7307 38.9948C31.1306 39.3514 30.485 39.6257 29.8121 39.8107C29.1393 39.9956 28.4442 40.0889 27.7452 40.0889H27.5229V35.8691H37.9976V40.0889ZM33.8765 38.8532C34.4616 39.2008 35.0928 39.4691 35.7523 39.6501C36.4107 39.8312 37.0908 39.9228 37.7748 39.9228H37.8304V36.0363H27.6896V39.9228H27.7452C28.4292 39.9228 29.1098 39.8312 29.7682 39.6501C30.4261 39.4696 31.0573 39.2014 31.6435 38.8532L31.6546 38.8454C31.9674 38.5966 32.3602 38.4594 32.7608 38.4594C33.1614 38.4594 33.5532 38.5966 33.8665 38.8454L33.8776 38.8532H33.8765ZM37.7198 39.8118L37.6348 39.8101C37.0086 39.7984 36.3852 39.7085 35.7818 39.543C35.1339 39.3652 34.5138 39.102 33.9388 38.761L33.9299 38.7549C33.5976 38.4927 33.1826 38.3489 32.7603 38.3489C32.338 38.3489 31.9213 38.4933 31.5901 38.7549L31.5807 38.761C31.0045 39.1025 30.3844 39.3652 29.7382 39.543C29.1354 39.7085 28.512 39.7984 27.8852 39.8101L27.8002 39.8118V36.1474H37.7192V39.8118H37.7198ZM27.9674 36.3134V39.6413C28.5514 39.6235 29.132 39.5363 29.6943 39.3819C30.3244 39.2086 30.9289 38.9526 31.4912 38.6199C31.8513 38.3372 32.3019 38.1812 32.7603 38.1812C33.2187 38.1812 33.6682 38.3367 34.0288 38.6199C34.5894 38.952 35.1945 39.2081 35.8262 39.3819C36.3885 39.5363 36.9691 39.6235 37.5531 39.6413V36.3134H27.9674Z" fill="#131F67"/>
<path d="M36.6804 41.3569H28.8399C28.511 41.3569 28.2015 41.2286 27.9676 40.9959C27.7342 40.7626 27.6064 40.4533 27.6064 40.1234V39.7285H37.9144V40.1234C37.9144 40.8037 37.361 41.3569 36.6804 41.3569ZM27.8843 40.0062V40.1234C27.8843 40.3789 27.9837 40.6188 28.1643 40.7993C28.3454 40.9798 28.5855 41.0792 28.8399 41.0792H36.6804C37.2077 41.0792 37.6366 40.6504 37.6366 40.1234V40.0062H27.8843Z" fill="#131F67"/>
<path d="M36.6802 41.4395H28.8398C28.4886 41.4395 28.158 41.3029 27.9091 41.0541C27.6602 40.8053 27.5229 40.4743 27.5229 40.1227V39.6445H37.9976V40.1227C37.9976 40.8486 37.4064 41.4395 36.6802 41.4395ZM27.6896 39.8111V40.1227C27.6896 40.4304 27.8091 40.7192 28.0269 40.9363C28.2447 41.1535 28.5336 41.2729 28.8398 41.2729H36.6802C37.3147 41.2729 37.8309 40.7569 37.8309 40.1227V39.8111H27.6896ZM36.6802 41.1618H28.8398C28.5631 41.1618 28.3019 41.0541 28.1052 40.8575C27.9091 40.6614 27.8008 40.4004 27.8008 40.1227V39.9222H37.7198V40.1227C37.7198 40.6959 37.2536 41.1618 36.6802 41.1618ZM27.9674 40.0888V40.1227C27.9674 40.356 28.058 40.5753 28.223 40.7397C28.3881 40.9041 28.6075 40.9952 28.8398 40.9952H36.6802C37.1614 40.9952 37.5531 40.6037 37.5531 40.1227V40.0888H27.9674Z" fill="#131F67"/>
<path d="M37.7753 40.0062H27.7451V39.7285C28.4119 39.7285 29.0747 39.6391 29.7165 39.463C30.3554 39.2875 30.9683 39.0276 31.5384 38.6899C31.8845 38.4161 32.3179 38.2656 32.7602 38.2656C33.2025 38.2656 33.6348 38.4161 33.9815 38.6899C34.5499 39.027 35.1633 39.287 35.8039 39.463C36.4457 39.6391 37.1085 39.7285 37.7753 39.7285V40.0062ZM29.7982 39.7285H35.7222C35.0572 39.5452 34.4215 39.2742 33.8314 38.9237L33.8159 38.9132C33.517 38.6749 33.1419 38.5439 32.7602 38.5439C32.3785 38.5439 32.0023 38.6749 31.704 38.9132L31.6884 38.9243C31.0972 39.2753 30.4616 39.5463 29.7982 39.729V39.7285Z" fill="#131F67"/>
<path d="M37.8585 40.0894H27.6616V39.6451H27.745C28.4039 39.6451 29.0596 39.5568 29.6941 39.3824C30.3242 39.2091 30.9287 38.9531 31.491 38.6204C31.851 38.3377 32.3017 38.1816 32.76 38.1816C33.2184 38.1816 33.6679 38.3371 34.0285 38.6204C34.5892 38.9525 35.1942 39.2085 35.826 39.3824C36.4605 39.5568 37.1161 39.6451 37.7751 39.6451H37.8585V40.0894ZM27.8283 39.9227H37.6918V39.8111C37.0461 39.8039 36.4038 39.7139 35.7821 39.5429C35.1342 39.3651 34.5142 39.1019 33.9391 38.7609L33.9302 38.7548C33.5979 38.4927 33.1829 38.3488 32.7606 38.3488C32.3383 38.3488 31.9216 38.4932 31.5905 38.7548L31.581 38.7609C31.0048 39.1025 30.3847 39.3651 29.7386 39.5429C29.1168 39.7139 28.4745 39.8039 27.8283 39.8111V39.9227ZM36.3372 39.8117H29.1824L29.7758 39.6478C30.4309 39.4673 31.0593 39.1996 31.6432 38.8531L31.6543 38.8453C31.9672 38.5965 32.36 38.4593 32.76 38.4593C33.1601 38.4593 33.5524 38.5965 33.8657 38.8453L33.8769 38.8531C34.4597 39.1991 35.0881 39.4668 35.7449 39.6478L36.3383 39.8117H36.3372ZM30.3414 39.6451H35.1781C34.6942 39.4746 34.2286 39.2569 33.7885 38.9953L33.7635 38.9781C33.479 38.7515 33.1229 38.6265 32.7595 38.6265C32.3961 38.6265 32.0388 38.7515 31.7555 38.9781L31.7305 38.9953C31.2899 39.2574 30.8242 39.4746 30.3414 39.6451Z" fill="#131F67"/>
<path d="M42.5958 1.4707H22.9238V1.74839H42.5958V1.4707Z" fill="#131F67"/>
<path d="M42.679 1.83102H22.8403V1.38672H42.679V1.83102ZM23.007 1.66441H42.5123V1.55333H23.007V1.66441Z" fill="#131F67"/>
<path d="M23.3787 0.783353L23.1201 0.884766L23.4243 1.65977L23.6829 1.55836L23.3787 0.783353Z" fill="#131F67"/>
<path d="M23.3777 1.76821L23.0127 0.837951L23.4266 0.675781L23.7917 1.60604L23.3777 1.76821ZM23.2283 0.93181L23.4716 1.55217L23.575 1.51162L23.3316 0.891267L23.2283 0.93181Z" fill="#131F67"/>
<path d="M24.4056 0.783353L24.147 0.884766L24.4511 1.65977L24.7098 1.55836L24.4056 0.783353Z" fill="#131F67"/>
<path d="M24.4036 1.76821L24.0386 0.837951L24.4525 0.675781L24.8176 1.60604L24.4036 1.76821ZM24.2542 0.93181L24.4975 1.55217L24.6009 1.51162L24.3575 0.891267L24.2542 0.93181Z" fill="#131F67"/>
<path d="M25.4305 0.783353L25.1719 0.884766L25.476 1.65977L25.7347 1.55836L25.4305 0.783353Z" fill="#131F67"/>
<path d="M25.429 1.76821L25.064 0.837951L25.4779 0.675781L25.843 1.60604L25.429 1.76821ZM25.2795 0.93181L25.5229 1.55217L25.6263 1.51162L25.3829 0.891267L25.2795 0.93181Z" fill="#131F67"/>
<path d="M26.4569 0.783353L26.1982 0.884766L26.5024 1.65977L26.761 1.55836L26.4569 0.783353Z" fill="#131F67"/>
<path d="M26.4549 1.76821L26.0898 0.837951L26.5038 0.675781L26.8688 1.60604L26.4549 1.76821ZM26.306 0.93181L26.5493 1.55217L26.6527 1.51162L26.4093 0.891267L26.306 0.93181Z" fill="#131F67"/>
<path d="M27.4818 0.783353L27.2231 0.884766L27.5273 1.65977L27.7859 1.55836L27.4818 0.783353Z" fill="#131F67"/>
<path d="M27.4803 1.76821L27.1152 0.837951L27.5292 0.675781L27.8942 1.60604L27.4803 1.76821ZM27.3314 0.93181L27.5747 1.55217L27.6781 1.51162L27.4347 0.891267L27.3314 0.93181Z" fill="#131F67"/>
<path d="M28.5076 0.783353L28.249 0.884766L28.5532 1.65977L28.8118 1.55836L28.5076 0.783353Z" fill="#131F67"/>
<path d="M28.5062 1.76821L28.1411 0.837951L28.5551 0.675781L28.9201 1.60604L28.5062 1.76821ZM28.3573 0.93181L28.6006 1.55217L28.704 1.51162L28.4606 0.891267L28.3573 0.93181Z" fill="#131F67"/>
<path d="M29.5335 0.783353L29.2749 0.884766L29.5791 1.65977L29.8377 1.55836L29.5335 0.783353Z" fill="#131F67"/>
<path d="M29.532 1.76821L29.167 0.837951L29.5809 0.675781L29.946 1.60604L29.532 1.76821ZM29.3831 0.93181L29.6265 1.55217L29.7298 1.51162L29.4865 0.891267L29.3831 0.93181Z" fill="#131F67"/>
<path d="M30.5589 0.783353L30.3003 0.884766L30.6045 1.65977L30.8631 1.55836L30.5589 0.783353Z" fill="#131F67"/>
<path d="M30.5574 1.76821L30.1924 0.837951L30.6063 0.675781L30.9714 1.60604L30.5574 1.76821ZM30.4085 0.93181L30.6519 1.55217L30.7552 1.51162L30.5119 0.891267L30.4085 0.93181Z" fill="#131F67"/>
<path d="M31.5848 0.783353L31.3262 0.884766L31.6303 1.65977L31.889 1.55836L31.5848 0.783353Z" fill="#131F67"/>
<path d="M31.5833 1.76821L31.2183 0.837951L31.6322 0.675781L31.9972 1.60604L31.5833 1.76821ZM31.4344 0.93181L31.6778 1.55217L31.7811 1.51162L31.5377 0.891267L31.4344 0.93181Z" fill="#131F67"/>
<path d="M32.6102 0.783353L32.3516 0.884766L32.6557 1.65977L32.9144 1.55836L32.6102 0.783353Z" fill="#131F67"/>
<path d="M32.6087 1.76821L32.2437 0.837951L32.6576 0.675781L33.0226 1.60604L32.6087 1.76821ZM32.4598 0.93181L32.7032 1.55217L32.8065 1.51162L32.5631 0.891267L32.4598 0.93181Z" fill="#131F67"/>
<path d="M33.6361 0.783353L33.3774 0.884766L33.6816 1.65977L33.9402 1.55836L33.6361 0.783353Z" fill="#131F67"/>
<path d="M33.6346 1.76821L33.2695 0.837951L33.6835 0.675781L34.0485 1.60604L33.6346 1.76821ZM33.4857 0.93181L33.729 1.55217L33.8324 1.51162L33.589 0.891267L33.4857 0.93181Z" fill="#131F67"/>
<path d="M34.6619 0.783353L34.4033 0.884766L34.7075 1.65977L34.9661 1.55836L34.6619 0.783353Z" fill="#131F67"/>
<path d="M34.6605 1.76821L34.2954 0.837951L34.7094 0.675781L35.0744 1.60604L34.6605 1.76821ZM34.5115 0.93181L34.7549 1.55217L34.8583 1.51162L34.6149 0.891267L34.5115 0.93181Z" fill="#131F67"/>
<path d="M35.6873 0.783353L35.4287 0.884766L35.7329 1.65977L35.9915 1.55836L35.6873 0.783353Z" fill="#131F67"/>
<path d="M35.6858 1.76821L35.3208 0.837951L35.7347 0.675781L36.0998 1.60604L35.6858 1.76821ZM35.5369 0.93181L35.7803 1.55217L35.8836 1.51162L35.6403 0.891267L35.5369 0.93181Z" fill="#131F67"/>
<path d="M36.7137 0.783353L36.4551 0.884766L36.7592 1.65977L37.0179 1.55836L36.7137 0.783353Z" fill="#131F67"/>
<path d="M36.7117 1.76821L36.3467 0.837951L36.7606 0.675781L37.1257 1.60604L36.7117 1.76821ZM36.5628 0.93181L36.8062 1.55217L36.9095 1.51162L36.6662 0.891267L36.5628 0.93181Z" fill="#131F67"/>
<path d="M37.7391 0.783353L37.4805 0.884766L37.7846 1.65977L38.0433 1.55836L37.7391 0.783353Z" fill="#131F67"/>
<path d="M37.7381 1.76821L37.373 0.837951L37.787 0.675781L38.152 1.60604L37.7381 1.76821ZM37.5886 0.93181L37.832 1.55217L37.9353 1.51162L37.692 0.891267L37.5886 0.93181Z" fill="#131F67"/>
<path d="M38.7645 0.783353L38.5059 0.884766L38.81 1.65977L39.0687 1.55836L38.7645 0.783353Z" fill="#131F67"/>
<path d="M38.7635 1.76821L38.3984 0.837951L38.8124 0.675781L39.1774 1.60604L38.7635 1.76821ZM38.614 0.93181L38.8574 1.55217L38.9607 1.51162L38.7174 0.891267L38.614 0.93181Z" fill="#131F67"/>
<path d="M39.7904 0.783353L39.5317 0.884766L39.8359 1.65977L40.0945 1.55836L39.7904 0.783353Z" fill="#131F67"/>
<path d="M39.7894 1.76821L39.4243 0.837951L39.8383 0.675781L40.2033 1.60604L39.7894 1.76821ZM39.6399 0.93181L39.8833 1.55217L39.9866 1.51162L39.7432 0.891267L39.6399 0.93181Z" fill="#131F67"/>
<path d="M40.8162 0.783353L40.5576 0.884766L40.8618 1.65977L41.1204 1.55836L40.8162 0.783353Z" fill="#131F67"/>
<path d="M40.8148 1.76821L40.4497 0.837951L40.8636 0.675781L41.2287 1.60604L40.8148 1.76821ZM40.6653 0.93181L40.9087 1.55217L41.012 1.51162L40.7686 0.891267L40.6653 0.93181Z" fill="#131F67"/>
<path d="M41.8421 0.783353L41.5835 0.884766L41.8877 1.65977L42.1463 1.55836L41.8421 0.783353Z" fill="#131F67"/>
<path d="M41.8406 1.76821L41.4756 0.837951L41.8895 0.675781L42.2546 1.60604L41.8406 1.76821ZM41.6917 0.93181L41.9351 1.55217L42.0384 1.51162L41.7951 0.891267L41.6917 0.93181Z" fill="#131F67"/>
</g>
<defs>
<clipPath id="clip0_16_18">
<rect width="25.76" height="22.96" fill="white" transform="translate(0 19.0391)"/>
</clipPath>
<clipPath id="clip1_16_18">
<rect width="14" height="41.44" fill="white" transform="translate(41.4399)"/>
</clipPath>
<clipPath id="clip2_16_18">
<rect width="21.84" height="41.44" fill="white" transform="translate(21.8398)"/>
</clipPath>
</defs>
</svg>
