<svg width="45" height="45" viewBox="0 0 45 45" fill="none" xmlns="http://www.w3.org/2000/svg">
<g clip-path="url(#clip0_16_137)">
<path d="M22.5 0.5C23.9825 0.5 25.2675 1.31278 26.6055 2.30078L27.1826 2.7334C28.0815 3.41241 28.9972 4.10717 29.9541 4.50391C30.9637 4.9225 32.1884 5.09872 33.292 5.25977C35.1893 5.53708 36.9221 5.80882 38.0566 6.94336C39.0494 7.93607 39.3813 9.38649 39.6348 11.0049L39.7402 11.708C39.9009 12.8119 40.0776 14.0364 40.4961 15.0459V15.0469C40.8928 16.003 41.5882 16.9187 42.2666 17.8174C43.4388 19.3697 44.5 20.8067 44.5 22.5C44.4999 24.1932 43.4378 25.6294 42.2656 27.1816V27.1826C41.6725 27.9689 41.0654 28.7683 40.6572 29.5967L40.4951 29.9531C40.0765 30.9628 39.8999 32.1879 39.7393 33.292C39.462 35.1891 39.191 36.9217 38.0557 38.0566C36.9212 39.1911 35.1891 39.462 33.292 39.7393C32.1883 39.9003 30.9628 40.0764 29.9531 40.4951C28.9964 40.8918 28.0813 41.5868 27.1826 42.2656C25.6303 43.4374 24.1934 44.5 22.5 44.5C20.8066 44.5 19.3699 43.437 17.8174 42.2656H17.8164C16.9178 41.5868 16.0028 40.8917 15.0469 40.4951C14.0372 40.0764 12.8117 39.9003 11.708 39.7393C9.81004 39.462 8.07833 39.1911 6.94336 38.0566C5.80891 36.9222 5.53751 35.1894 5.26074 33.292C5.11979 32.3261 4.96686 31.2669 4.65039 30.3408L4.50488 29.9531C4.10817 28.9967 3.41248 28.0806 2.7334 27.1816C1.56218 25.6293 0.500101 24.1931 0.5 22.5C0.5 20.8066 1.56247 19.3699 2.73438 17.8174C3.41331 16.9186 4.10816 16.003 4.50488 15.0469V15.0459C4.92344 14.0363 5.0997 12.8115 5.26074 11.708C5.53748 9.81125 5.8092 8.07841 6.94336 6.94336C8.07787 5.80883 9.81076 5.53708 11.709 5.25977C12.8125 5.09872 14.0373 4.9225 15.0469 4.50391C15.7642 4.20633 16.4589 3.74088 17.1406 3.24023L17.8184 2.7334C19.3707 1.56213 20.8059 0.500202 22.5 0.5Z" stroke="#131F67"/>
<path d="M27.5679 14.3213C27.8813 14.0082 28.3891 14.0074 28.7026 14.3203L30.6792 16.2979C30.9924 16.6114 30.9924 17.1191 30.6792 17.4326L25.6108 22.501L30.6792 27.5693C30.9922 27.8823 30.9922 28.3901 30.6792 28.7031L28.7026 30.6807C28.3897 30.9934 27.8818 30.9933 27.5688 30.6807L22.854 25.9648L22.5005 25.6113L17.4312 30.6807C17.1182 30.9934 16.6103 30.9933 16.2974 30.6807L14.3198 28.7031C14.0072 28.3902 14.0071 27.8823 14.3198 27.5693L19.0347 22.8545L19.3892 22.501L19.0347 22.1475L14.3208 17.4326C14.0076 17.1191 14.0066 16.6104 14.3198 16.2969L16.2974 14.3213C16.5912 14.0277 17.0554 14.0089 17.3706 14.2656L17.4321 14.3213L22.5005 19.3896L22.854 19.0361L27.5669 14.3203L27.5679 14.3213Z" fill="#131F67" stroke="#131F67"/>
</g>
<defs>
<clipPath id="clip0_16_137">
<rect width="45" height="45" fill="white"/>
</clipPath>
</defs>
</svg>
